<svg width="166" height="104" viewBox="0 0 166 104" fill="none" xmlns="http://www.w3.org/2000/svg">
<path d="M155.8 1H1V101.357H155.8V1Z" stroke="#CE24CE" stroke-miterlimit="10" stroke-linecap="round" stroke-linejoin="round"/>
<path d="M17.195 101.271H163.209" stroke="#831EC1" stroke-width="4" stroke-miterlimit="10" stroke-linecap="round" stroke-linejoin="round"/>
<path d="M138.313 14.0076H17.195V101.271H138.313V14.0076Z" stroke="#831EC1" stroke-width="2" stroke-miterlimit="10" stroke-linecap="round" stroke-linejoin="round"/>
<path d="M132.972 18.4011H21.5883V95.8442H132.972V18.4011Z" fill="white"/>
<path d="M100.927 25.1204H79.3047V52.2556H100.927V25.1204Z" fill="#FFC52F"/>
<path d="M126.167 25.1204H104.544V52.2556H126.167V25.1204Z" fill="#FFC52F"/>
<path d="M100.927 58.7163H79.3047V85.8516H100.927V58.7163Z" fill="#FFC52F"/>
<path d="M126.167 58.7163H104.544V85.8516H126.167V58.7163Z" fill="#FFC52F"/>
<path d="M72.4993 25.1204H27.7046V54.7537H72.4993V25.1204Z" stroke="#831EC1" stroke-width="2" stroke-miterlimit="10" stroke-linecap="round" stroke-linejoin="round"/>
<path d="M90.1586 44.5025C93.0131 44.5025 95.3272 42.1885 95.3272 39.3339C95.3272 36.4794 93.0131 34.1653 90.1586 34.1653C87.304 34.1653 84.99 36.4794 84.99 39.3339C84.99 42.1885 87.304 44.5025 90.1586 44.5025Z" fill="white"/>
<path d="M90.0726 58.2857C94.3544 58.2857 97.8255 54.8145 97.8255 50.5327C97.8255 46.2509 94.3544 42.7798 90.0726 42.7798C85.7908 42.7798 82.3197 46.2509 82.3197 50.5327C82.3197 54.8145 85.7908 58.2857 90.0726 58.2857Z" fill="white"/>
<path d="M115.399 44.5025C118.253 44.5025 120.567 42.1885 120.567 39.3339C120.567 36.4794 118.253 34.1653 115.399 34.1653C112.544 34.1653 110.23 36.4794 110.23 39.3339C110.23 42.1885 112.544 44.5025 115.399 44.5025Z" fill="white"/>
<path d="M115.312 58.2857C119.594 58.2857 123.065 54.8145 123.065 50.5327C123.065 46.2509 119.594 42.7798 115.312 42.7798C111.031 42.7798 107.56 46.2509 107.56 50.5327C107.56 54.8145 111.031 58.2857 115.312 58.2857Z" fill="white"/>
<path d="M115.399 77.151C118.253 77.151 120.567 74.8369 120.567 71.9823C120.567 69.1278 118.253 66.8137 115.399 66.8137C112.544 66.8137 110.23 69.1278 110.23 71.9823C110.23 74.8369 112.544 77.151 115.399 77.151Z" fill="white"/>
<path d="M115.312 91.0201C119.594 91.0201 123.065 87.549 123.065 83.2672C123.065 78.9854 119.594 75.5143 115.312 75.5143C111.031 75.5143 107.56 78.9854 107.56 83.2672C107.56 87.549 111.031 91.0201 115.312 91.0201Z" fill="white"/>
<path d="M90.1586 77.151C93.0131 77.151 95.3272 74.8369 95.3272 71.9823C95.3272 69.1278 93.0131 66.8137 90.1586 66.8137C87.304 66.8137 84.99 69.1278 84.99 71.9823C84.99 74.8369 87.304 77.151 90.1586 77.151Z" fill="white"/>
<path d="M90.0726 91.0201C94.3544 91.0201 97.8255 87.549 97.8255 83.2672C97.8255 78.9854 94.3544 75.5143 90.0726 75.5143C85.7908 75.5143 82.3197 78.9854 82.3197 83.2672C82.3197 87.549 85.7908 91.0201 90.0726 91.0201Z" fill="white"/>
<path d="M55.4427 40.2814L44.7609 34.1653V46.4837L55.4427 40.2814Z" fill="#FFC52F"/>
<path d="M72.4993 58.7163H27.7046V66.9H72.4993V58.7163Z" fill="#CE24CE"/>
</svg>
