<svg width="156" height="102" viewBox="0 0 156 102" fill="none" xmlns="http://www.w3.org/2000/svg">
<path d="M150.372 5.71338H5.62798V100.839H150.372V5.71338Z" fill="#FFC52F"/>
<path d="M150.372 5.71338H5.62798V12.7407H150.372V5.71338Z" fill="#831EC1"/>
<path d="M9.31268 10.9412C10.2119 10.9412 10.9409 10.2121 10.9409 9.31286C10.9409 8.41359 10.2119 7.68457 9.31268 7.68457C8.41341 7.68457 7.68439 8.41359 7.68439 9.31286C7.68439 10.2121 8.41341 10.9412 9.31268 10.9412Z" fill="#831EC1"/>
<path d="M14.54 10.9412C15.4393 10.9412 16.1683 10.2121 16.1683 9.31286C16.1683 8.41359 15.4393 7.68457 14.54 7.68457C13.6408 7.68457 12.9118 8.41359 12.9118 9.31286C12.9118 10.2121 13.6408 10.9412 14.54 10.9412Z" fill="#7038DE"/>
<path d="M20.1963 10.9412C21.0955 10.9412 21.8245 10.2121 21.8245 9.31286C21.8245 8.41359 21.0955 7.68457 20.1963 7.68457C19.297 7.68457 18.568 8.41359 18.568 9.31286C18.568 10.2121 19.297 10.9412 20.1963 10.9412Z" fill="#CE24CE"/>
<path d="M55.3325 68.5303C55.3325 68.5303 41.1922 27.5665 73.072 21.9961C111.551 15.3116 106.58 57.818 106.58 57.818C106.58 57.818 119.349 78.3 114.636 89.7836C109.922 101.353 46.077 93.8971 46.077 93.8971C46.077 93.8971 40.8494 63.217 60.6457 53.9616" fill="#CE24CE"/>
<path d="M122.348 101.353C117.035 85.9272 98.9526 74.5293 77.528 74.5293C56.1034 74.5293 38.0211 85.9272 32.7078 101.353H122.348Z" fill="#831EC1"/>
<path d="M97.8389 41.8782C97.1533 41.8782 96.5534 41.9639 96.0392 42.221C93.7254 33.6511 87.0409 27.4808 79.1566 27.4808C71.2724 27.4808 64.5879 33.7368 62.1884 42.3066C61.5885 42.0495 60.9028 41.9638 60.2173 41.9638C57.5606 41.9638 55.3325 43.8492 55.3325 46.1631C55.3325 48.4769 57.4749 50.3623 60.2173 50.3623C60.6457 50.3623 60.9886 50.2766 61.3314 50.2766C61.8456 61.5888 69.6441 70.5014 79.0709 70.5014C88.5834 70.5014 96.2963 61.5888 96.8105 50.2766C97.1533 50.3623 97.4104 50.3623 97.7532 50.3623C100.41 50.3623 102.638 48.4769 102.638 46.1631C102.638 43.8492 100.496 41.8782 97.8389 41.8782Z" fill="#F39DC2"/>
<path d="M57.3036 46.3346C57.3036 46.3346 58.4176 44.792 60.8172 44.5349" stroke="black" stroke-miterlimit="10" stroke-linecap="round" stroke-linejoin="round"/>
<path d="M96.724 44.6205C96.724 44.6205 99.3807 44.449 100.666 46.4201" stroke="black" stroke-miterlimit="10" stroke-linecap="round" stroke-linejoin="round"/>
<path d="M96.0387 42.221C82.9268 41.9639 80.6986 30.3089 80.6986 30.3089C80.6986 30.3089 78.8133 32.9656 72.9001 36.9077C68.7009 39.65 62.1878 42.221 62.1878 42.221C62.1878 42.221 60.6452 22.7675 78.2134 22.7675C95.8672 22.8532 96.0387 42.221 96.0387 42.221Z" fill="#CE24CE"/>
<path d="M87.8974 63.5598H68.5295V79.7568H87.8974V63.5598Z" fill="#F39DC2"/>
<path d="M78.2134 82.2421C83.5617 82.2421 87.8974 81.0911 87.8974 79.6712C87.8974 78.2513 83.5617 77.1002 78.2134 77.1002C72.8652 77.1002 68.5295 78.2513 68.5295 79.6712C68.5295 81.0911 72.8652 82.2421 78.2134 82.2421Z" fill="#F39DC2"/>
<path d="M77.357 47.62C77.357 47.62 74.7004 52.2477 78.7282 52.8476" stroke="black" stroke-miterlimit="10" stroke-linecap="round" stroke-linejoin="round"/>
<path d="M72.0916 46.9784C73.1065 45.8543 73.4736 44.5317 72.9115 44.0242C72.3495 43.5168 71.0711 44.0167 70.0562 45.1408C69.0413 46.2649 68.6742 47.5875 69.2362 48.095C69.7983 48.6024 71.0766 48.1025 72.0916 46.9784Z" fill="black"/>
<path d="M87.9442 47.9187C88.4517 47.3567 87.9518 46.0783 86.8277 45.0634C85.7036 44.0485 84.3809 43.6814 83.8735 44.2434C83.366 44.8055 83.8659 46.0839 84.99 47.0988C86.1142 48.1137 87.4367 48.4808 87.9442 47.9187Z" fill="black"/>
<path d="M72.3002 50.0195C72.6788 50.0195 72.9857 49.7125 72.9857 49.3339C72.9857 48.9553 72.6788 48.6483 72.3002 48.6483C71.9215 48.6483 71.6146 48.9553 71.6146 49.3339C71.6146 49.7125 71.9215 50.0195 72.3002 50.0195Z" fill="black"/>
<path d="M83.0131 50.0195C83.3917 50.0195 83.6987 49.7125 83.6987 49.3339C83.6987 48.9553 83.3917 48.6483 83.0131 48.6483C82.6344 48.6483 82.3275 48.9553 82.3275 49.3339C82.3275 49.7125 82.6344 50.0195 83.0131 50.0195Z" fill="black"/>
<path d="M77.6142 55.5899C77.6142 55.5899 81.0421 55.9327 81.642 52.5048" stroke="black" stroke-miterlimit="10" stroke-linecap="round" stroke-linejoin="round"/>
<path d="M86.3552 54.2188C87.0652 54.2188 87.6407 53.6433 87.6407 52.9333C87.6407 52.2234 87.0652 51.6478 86.3552 51.6478C85.6453 51.6478 85.0697 52.2234 85.0697 52.9333C85.0697 53.6433 85.6453 54.2188 86.3552 54.2188Z" fill="#831EC1"/>
<path d="M78.2132 82.2422C78.2132 87.2984 78.2132 92.3546 78.2132 97.4108" stroke="black" stroke-miterlimit="10" stroke-linecap="round" stroke-linejoin="round"/>
<path d="M69.3007 40.5926C69.3007 40.5926 77.8705 37.079 80.7842 30.3088" stroke="#CE24CE" stroke-miterlimit="10" stroke-linecap="round" stroke-linejoin="round"/>
<path d="M42.1346 87.8982C42.1346 87.8982 41.449 67.8448 53.0183 58.8464" stroke="#CE24CE" stroke-miterlimit="10" stroke-linecap="round" stroke-linejoin="round"/>
<path d="M76.4992 69.4731C76.4992 69.4731 84.3835 71.6155 91.1536 64.8453" stroke="black" stroke-miterlimit="10" stroke-linecap="round" stroke-linejoin="round"/>
<path d="M155 1H1V100.839H155V1Z" stroke="#831EC1" stroke-miterlimit="10" stroke-linecap="round" stroke-linejoin="round"/>
</svg>
