<svg width="157" height="102" viewBox="0 0 157 102" fill="none" xmlns="http://www.w3.org/2000/svg">
<path d="M68.3738 12.1236C81.1158 13.5646 90.5965 22.3627 89.5347 31.6917C89.2313 34.5738 87.9419 37.1525 85.97 39.2762L98.4844 49.8945L77.9303 44.5095C73.9863 45.9505 69.3598 46.5573 64.5057 46.0264C51.7637 44.5853 42.2831 35.7872 43.3449 26.4583C44.4067 17.0534 55.6318 10.6825 68.3738 12.1236Z" fill="#831EC1"/>
<mask id="mask0_46_13090" style="mask-type:luminance" maskUnits="userSpaceOnUse" x="1" y="10" width="56" height="80">
<path d="M56.7689 10.91H1.02264V89.4098H56.7689V10.91Z" fill="white"/>
</mask>
<g mask="url(#mask0_46_13090)">
<path d="M-6.71263 33.2846C-6.71263 33.2846 -8.68457 20.4668 1.85792 19.86C12.4004 19.2533 11.0352 24.8659 11.0352 24.8659C11.0352 24.8659 16.5719 13.7167 28.1762 18.2674C43.2694 24.2592 30.5274 36.9252 30.5274 36.9252C30.5274 36.9252 33.0303 49.2121 24.5357 49.2121C16.6478 49.2121 16.6477 49.2121 16.6477 49.2121C16.6477 49.2121 18.6197 53.5353 14.069 55.7348C10.5043 57.4793 4.96756 52.701 4.96756 52.701L3.14725 59.4512C3.14725 59.4512 3.29894 73.4068 -2.54114 73.4068C-8.38122 73.4827 -15.2072 71.4348 -19.4546 61.9541C-23.7019 52.4735 -15.4348 49.1364 -15.4348 49.1364C-15.4348 49.1364 -21.1991 34.6498 -6.71263 33.2846Z" fill="black"/>
<path d="M23.6244 96.6913L19.8322 78.9436C19.8322 78.9436 28.4785 82.1291 32.8017 73.2552C36.6698 65.2914 36.4423 57.0242 36.4423 57.0242C36.4423 57.0242 39.5519 55.2798 39.2485 52.7011C39.021 50.1223 36.4423 50.3498 36.4423 50.3498C36.4423 50.3498 35.2287 45.7234 33.5602 41.7794C32.65 39.5799 31.5882 37.6079 30.5263 36.8495C30.5263 36.8495 23.4728 36.8493 14.3714 43.1445C6.48347 48.6053 4.96654 52.6251 4.96654 52.6251C4.96654 52.6251 -0.721811 47.6194 -3.52808 50.9566C-6.33436 54.2938 -4.36238 60.8923 -1.63195 61.8025C1.02263 62.7126 0.0366039 62.2576 0.0366039 62.2576L-8.0788 90.0928C-8.0788 90.0928 -0.57012 93.5816 4.81489 94.9468C11.4893 96.7671 23.6244 96.6913 23.6244 96.6913Z" fill="#F39DC2"/>
<path d="M34.0917 61.9541C34.0917 61.9541 32.3472 61.8025 30.5269 59.9823C29.541 58.9204 29.2376 57.1001 29.2376 57.1001" stroke="black" stroke-miterlimit="10" stroke-linecap="round" stroke-linejoin="round"/>
<path d="M32.7257 49.2119C32.7257 49.2119 30.0712 49.667 29.161 51.7148" stroke="black" stroke-miterlimit="10" stroke-linecap="round" stroke-linejoin="round"/>
<path d="M30.2975 48.4193C31.4789 47.3527 32.0043 46.0093 31.471 45.4186C30.9377 44.8279 29.5477 45.2137 28.3663 46.2803C27.1849 47.347 26.6595 48.6905 27.1928 49.2812C27.7261 49.8719 29.1161 49.486 30.2975 48.4193Z" fill="black"/>
<path d="M23.0189 57.8585C23.9823 57.8585 24.7633 57.0774 24.7633 56.114C24.7633 55.1506 23.9823 54.3695 23.0189 54.3695C22.0555 54.3695 21.2744 55.1506 21.2744 56.114C21.2744 57.0774 22.0555 57.8585 23.0189 57.8585Z" fill="#FFC52F"/>
<path d="M11.49 75.303C11.49 75.303 14.7514 79.0194 20.7432 79.2469" stroke="black" stroke-miterlimit="10" stroke-linecap="round" stroke-linejoin="round"/>
<path d="M1.78092 56.1141C1.78092 56.1141 -0.0394436 53.687 -1.70804 55.1281" stroke="black" stroke-miterlimit="10" stroke-linecap="round" stroke-linejoin="round"/>
<path d="M29.2376 37.0011C29.2376 37.0011 33.7883 37.6836 36.4429 30.8575" stroke="black" stroke-miterlimit="10" stroke-linecap="round" stroke-linejoin="round"/>
</g>
<path d="M1.00002 89.3597L137.294 89.3597L137.294 1.00005L1.00002 1.00005L1.00002 89.3597Z" stroke="#CE24CE" stroke-miterlimit="10" stroke-linecap="round" stroke-linejoin="round"/>
<path d="M153.548 49.4394C153.548 49.4394 149.68 37.3041 133.98 32.3742C121.845 28.5819 112.44 35.0288 112.44 35.0288" stroke="#FFC52F" stroke-miterlimit="10"/>
<path d="M102.883 98.8149L107.055 76.9714" stroke="#FFC52F" stroke-miterlimit="10"/>
<path d="M110.999 37.3801C110.999 37.3801 111.378 36.2424 112.44 35.0289C114.336 32.8294 118.432 30.0231 126.851 31.4642C140.123 33.6637 147.556 41.6274 152.638 57.7824C157.72 73.9375 156.961 84.4042 156.961 84.4042L137.621 90.1683L130.264 60.7405L119.873 61.1197L107.283 49.3637L107.055 42.9169L110.999 37.3801Z" fill="#FFC52F"/>
<path d="M108.874 69.7661L105.006 101.242L127.76 93.7333L123.967 71.1314L108.874 69.7661Z" fill="#FFC52F"/>
<path d="M116.231 34.3464C116.231 34.3464 112.514 31.616 105.84 36.6218C99.1657 41.6275 105.84 49.3638 105.84 49.3638L116.231 34.3464Z" fill="#FFC52F"/>
<path d="M120.403 98.8148L118.507 81.9772C118.507 81.9772 108.951 85.3143 104.931 77.0472C101.29 69.5385 101.518 61.8023 101.518 61.8023C101.518 61.8023 98.6356 60.1336 98.8632 57.7824C99.0907 55.4312 101.518 55.583 101.518 55.583C101.518 55.583 102.655 51.2597 104.172 47.5433C105.007 45.4955 105.993 43.5995 106.979 42.9169C106.979 42.9169 109.861 51.1839 117.824 55.5071C125.712 59.9061 130.946 57.7067 130.946 57.7067C130.946 57.7067 136.331 53.0042 138.909 56.1139C141.564 59.2235 139.668 65.4428 137.165 66.277C134.662 67.1872 134.662 66.5046 134.662 66.5046L140.806 91.0786C140.806 91.0786 135.951 95.25 131.173 97.2979C126.395 99.4974 120.403 98.8148 120.403 98.8148Z" fill="#F39DC2"/>
<path d="M103.718 66.353C103.718 66.353 105.386 66.2013 107.055 64.4568C107.965 63.4708 108.269 61.7263 108.269 61.7263" stroke="black" stroke-miterlimit="10" stroke-linecap="round" stroke-linejoin="round"/>
<path d="M105.006 54.4454C105.006 54.4454 107.509 54.8245 108.343 56.7965" stroke="black" stroke-miterlimit="10" stroke-linecap="round" stroke-linejoin="round"/>
<path d="M109.947 54.5816C110.452 54.0219 109.954 52.7492 108.835 51.7387C107.716 50.7283 106.399 50.3626 105.894 50.9223C105.388 51.4819 105.886 52.7548 107.005 53.7653C108.125 54.7757 109.441 55.1412 109.947 54.5816Z" fill="black"/>
<path d="M114.109 62.6367C115.03 62.6367 115.777 61.8895 115.777 60.968C115.777 60.0465 115.03 59.2994 114.109 59.2994C113.187 59.2994 112.44 60.0465 112.44 60.968C112.44 61.8895 113.187 62.6367 114.109 62.6367Z" fill="#FFC52F"/>
<path d="M124.879 78.8676C124.879 78.8676 120.935 82.2805 115.322 82.5839" stroke="black" stroke-miterlimit="10" stroke-linecap="round" stroke-linejoin="round"/>
<path d="M135.571 65.7462C136.032 65.7462 136.406 65.3728 136.406 64.912C136.406 64.4512 136.032 64.0776 135.571 64.0776C135.111 64.0776 134.737 64.4512 134.737 64.912C134.737 65.3728 135.111 65.7462 135.571 65.7462Z" fill="black"/>
<path d="M133.98 60.9679C133.98 60.9679 135.725 58.6926 137.242 60.0578" stroke="black" stroke-miterlimit="10" stroke-linecap="round" stroke-linejoin="round"/>
<path d="M37.049 67.3392L45.9229 77.7299C45.9229 78.1092 45.847 78.4125 45.847 78.7917C45.847 87.8173 53.1282 95.0984 62.1538 95.0984C71.1793 95.0984 78.4605 87.8173 78.4605 78.7917C78.4605 69.7661 71.1793 62.485 62.1538 62.485C55.8586 62.485 50.4736 65.9739 47.7432 71.2072L37.049 67.3392Z" fill="#CE24CE"/>
</svg>
