<svg width="128" height="89" viewBox="0 0 128 89" fill="none" xmlns="http://www.w3.org/2000/svg">
<path d="M114.997 79.8595H12.6012V8.51343H122.652V79.8595H115.18" stroke="white" stroke-width="0.612413" stroke-miterlimit="10" stroke-linecap="round" stroke-linejoin="round"/>
<path d="M55.2253 54.0157C52.0407 51.9335 49.8972 48.3203 49.8972 44.2171C49.8972 37.7256 55.164 32.5201 61.5943 32.5201C68.0859 32.5201 73.2914 37.7868 73.2914 44.2171C73.2914 46.5443 72.6178 48.6877 71.4542 50.4637" stroke="white" stroke-width="0.612413" stroke-miterlimit="10" stroke-linecap="round" stroke-linejoin="round"/>
<path d="M56.7563 63.0181C50.7547 61.2421 45.7941 56.649 43.8343 50.2187C40.7723 40.1139 46.529 29.5191 56.5726 26.457C66.6774 23.395 77.2722 29.1517 80.3342 39.1952C81.4366 42.8085 81.3753 46.4217 80.4567 49.79" stroke="white" stroke-width="0.612413" stroke-miterlimit="10" stroke-linecap="round" stroke-linejoin="round"/>
<path d="M81.3754 51.8112C79.5382 51.9337 78.987 53.036 78.3746 53.9546C77.7622 53.0973 77.211 51.8111 75.68 51.7499C73.8427 51.7499 72.373 53.2196 72.373 55.0569C72.373 53.2196 70.9032 51.7499 69.0659 51.7499C67.2287 51.7499 65.7589 53.2196 65.7589 55.0569V43.8498C65.7589 41.9513 64.3503 40.2978 62.5131 40.1141C60.3696 39.9303 58.5324 41.5838 58.5324 43.7272V69.3261L53.3882 63.3857C52.3471 62.1609 50.4486 61.8548 49.1625 62.8346C47.8152 63.8757 47.5702 65.7742 48.5501 67.1215L58.6549 80.5946C61.8395 84.8815 66.8 87.4536 72.128 87.4536C72.1892 87.4536 72.3117 87.4536 72.373 87.4536C75.1901 87.4536 77.456 86.3512 79.232 84.9427C82.6003 82.248 84.4375 78.0224 84.4375 73.6743V62.1609V55.3019C84.3763 53.5259 83.0902 51.6887 81.3754 51.8112Z" fill="#F39DC2"/>
<path d="M65.9425 54.0157V61.9159" stroke="black" stroke-width="0.612413" stroke-miterlimit="10" stroke-linecap="round" stroke-linejoin="round"/>
<path d="M72.1891 54.0157V61.9159" stroke="black" stroke-width="0.612413" stroke-miterlimit="10" stroke-linecap="round" stroke-linejoin="round"/>
<path d="M78.3744 54.0157V61.9159" stroke="black" stroke-width="0.612413" stroke-miterlimit="10" stroke-linecap="round" stroke-linejoin="round"/>
<path d="M58.4709 58.8539V70.7346" stroke="black" stroke-width="0.612413" stroke-miterlimit="10" stroke-linecap="round" stroke-linejoin="round"/>
<path d="M48.2438 66.6315C48.2438 66.6315 49.4073 64.488 50.8771 65.7741C52.3469 67.0601 50.8771 70.2447 50.8771 70.2447" stroke="black" stroke-width="0.612413" stroke-miterlimit="10" stroke-linecap="round" stroke-linejoin="round"/>
<path d="M59.5734 41.2163C59.5734 41.2163 58.961 45.3808 61.9618 45.3808C64.9627 45.3808 64.6564 41.2163 64.6564 41.2163" stroke="black" stroke-width="0.612413" stroke-miterlimit="10" stroke-linecap="round" stroke-linejoin="round"/>
<path d="M1.33288 34.6635C1.33288 34.6635 -1.91294 46.1768 11.8664 46.0543C25.6456 45.9319 40.5885 9.1258 21.9099 13.7189C11.8664 16.1686 26.0131 39.1954 41.9358 26.7022C57.7973 14.209 49.9584 2.45056 49.9584 2.45056" stroke="#CE24CE" stroke-width="0.612413" stroke-miterlimit="10" stroke-linecap="round" stroke-linejoin="round"/>
<path d="M15.3571 47.218C16.6085 47.218 17.6231 46.2034 17.6231 44.952C17.6231 43.7006 16.6085 42.6861 15.3571 42.6861C14.1056 42.6861 13.0912 43.7006 13.0912 44.952C13.0912 46.2034 14.1056 47.218 15.3571 47.218Z" fill="#7038DE"/>
<path d="M51.1834 16.4748C52.4348 16.4748 53.4494 15.4603 53.4494 14.2089C53.4494 12.9575 52.4348 11.943 51.1834 11.943C49.9319 11.943 48.9175 12.9575 48.9175 14.2089C48.9175 15.4603 49.9319 16.4748 51.1834 16.4748Z" fill="#7038DE"/>
<path d="M127 33.5612C127 33.5612 100.299 31.9689 97.543 58.1802C94.8483 83.8403 117.263 88.6171 117.263 88.6171" stroke="#831EC1" stroke-width="0.612413" stroke-miterlimit="10"/>
<path d="M109.914 39.7465C111.165 39.7465 112.18 38.732 112.18 37.4806C112.18 36.2291 111.165 35.2147 109.914 35.2147C108.662 35.2147 107.648 36.2291 107.648 37.4806C107.648 38.732 108.662 39.7465 109.914 39.7465Z" fill="#FFC52F"/>
<path d="M109.914 87.5147C111.165 87.5147 112.18 86.5002 112.18 85.2488C112.18 83.9974 111.165 82.9829 109.914 82.9829C108.662 82.9829 107.648 83.9974 107.648 85.2488C107.648 86.5002 108.662 87.5147 109.914 87.5147Z" fill="#FFC52F"/>
<path d="M95.2157 12.9229L104.096 26.4571" stroke="#FBF264" stroke-width="1.83724" stroke-miterlimit="10" stroke-linecap="round" stroke-linejoin="round"/>
<path d="M100.535 -0.00170961L81.1429 12.7501L89.7227 25.7977L109.115 13.0459L100.535 -0.00170961Z" fill="white"/>
<path d="M88.4792 16.2299C88.4792 16.2299 88.418 12.188 89.949 12.4329C91.4801 12.6779 89.5816 16.6585 91.5413 16.0461C93.501 15.4337 92.7049 11.5755 92.7049 11.5755C92.7049 11.5755 95.4607 17.1485 94.5421 19.4757C93.6235 21.9866 91.6025 19.7819 93.1335 17.8222C93.1335 17.8222 95.3383 14.5763 95.9507 12.1879C96.5631 9.79947 95.032 9.55463 94.2971 10.4732C93.501 11.3306 95.0321 15.9237 96.3181 14.8826C97.543 13.9027 97.7267 11.0244 97.1755 9.55463C96.6856 8.08484 98.2166 10.7182 99.5027 10.7182C100.789 10.7182 101.217 12.8615 99.9314 13.4127C99.0128 13.8414 98.584 12.8616 98.584 12.8616" stroke="black" stroke-width="0.612413" stroke-miterlimit="10" stroke-linecap="round" stroke-linejoin="round"/>
<path d="M98.5841 4.83887L101.095 9.61572" stroke="black" stroke-width="0.612413" stroke-miterlimit="10" stroke-linecap="round" stroke-linejoin="round"/>
<path d="M102.136 11.8816C102.373 11.8816 102.565 11.6897 102.565 11.453C102.565 11.2162 102.373 11.0243 102.136 11.0243C101.899 11.0243 101.707 11.2162 101.707 11.453C101.707 11.6897 101.899 11.8816 102.136 11.8816Z" fill="black"/>
</svg>
