<svg width="152" height="95" viewBox="0 0 152 95" fill="none" xmlns="http://www.w3.org/2000/svg">
<path d="M142.907 1H1V92.9984H142.907V1Z" stroke="#CE24CE" stroke-miterlimit="10" stroke-linecap="round" stroke-linejoin="round"/>
<path d="M15.8461 92.9193H149.698" stroke="#831EC1" stroke-width="4" stroke-miterlimit="10" stroke-linecap="round" stroke-linejoin="round"/>
<path d="M126.876 12.9241H15.8461V92.9194H126.876V12.9241Z" stroke="#831EC1" stroke-width="2" stroke-miterlimit="10" stroke-linecap="round" stroke-linejoin="round"/>
<path d="M121.98 16.9517H19.8735V87.9444H121.98V16.9517Z" fill="white"/>
<path d="M92.6037 23.1113H72.7826V47.9864H92.6037V23.1113Z" fill="#FFC52F"/>
<path d="M115.741 23.1113H95.92V47.9864H115.741V23.1113Z" fill="#FFC52F"/>
<path d="M92.6037 53.9089H72.7826V78.784H92.6037V53.9089Z" fill="#FFC52F"/>
<path d="M115.741 53.9089H95.92V78.784H115.741V53.9089Z" fill="#FFC52F"/>
<path d="M66.544 23.1113H25.4803V50.2765H66.544V23.1113Z" stroke="#831EC1" stroke-width="2" stroke-miterlimit="10" stroke-linecap="round" stroke-linejoin="round"/>
<path d="M82.7324 40.8792C85.3492 40.8792 87.4705 38.7579 87.4705 36.1411C87.4705 33.5243 85.3492 31.403 82.7324 31.403C80.1156 31.403 77.9943 33.5243 77.9943 36.1411C77.9943 38.7579 80.1156 40.8792 82.7324 40.8792Z" fill="white"/>
<path d="M82.6536 53.5143C86.5787 53.5143 89.7607 50.3323 89.7607 46.4071C89.7607 42.4819 86.5787 39.2999 82.6536 39.2999C78.7284 39.2999 75.5464 42.4819 75.5464 46.4071C75.5464 50.3323 78.7284 53.5143 82.6536 53.5143Z" fill="white"/>
<path d="M105.87 40.8792C108.487 40.8792 110.608 38.7579 110.608 36.1411C110.608 33.5243 108.487 31.403 105.87 31.403C103.253 31.403 101.132 33.5243 101.132 36.1411C101.132 38.7579 103.253 40.8792 105.87 40.8792Z" fill="white"/>
<path d="M105.791 53.5143C109.716 53.5143 112.898 50.3323 112.898 46.4071C112.898 42.4819 109.716 39.2999 105.791 39.2999C101.866 39.2999 98.6841 42.4819 98.6841 46.4071C98.6841 50.3323 101.866 53.5143 105.791 53.5143Z" fill="white"/>
<path d="M105.87 70.8082C108.487 70.8082 110.608 68.6869 110.608 66.0701C110.608 63.4533 108.487 61.332 105.87 61.332C103.253 61.332 101.132 63.4533 101.132 66.0701C101.132 68.6869 103.253 70.8082 105.87 70.8082Z" fill="white"/>
<path d="M105.791 83.5222C109.716 83.5222 112.898 80.3402 112.898 76.415C112.898 72.4899 109.716 69.3079 105.791 69.3079C101.866 69.3079 98.6841 72.4899 98.6841 76.415C98.6841 80.3402 101.866 83.5222 105.791 83.5222Z" fill="white"/>
<path d="M82.7324 70.8082C85.3492 70.8082 87.4705 68.6869 87.4705 66.0701C87.4705 63.4533 85.3492 61.332 82.7324 61.332C80.1156 61.332 77.9943 63.4533 77.9943 66.0701C77.9943 68.6869 80.1156 70.8082 82.7324 70.8082Z" fill="white"/>
<path d="M82.6536 83.5222C86.5787 83.5222 89.7607 80.3402 89.7607 76.415C89.7607 72.4899 86.5787 69.3079 82.6536 69.3079C78.7284 69.3079 75.5464 72.4899 75.5464 76.415C75.5464 80.3402 78.7284 83.5222 82.6536 83.5222Z" fill="white"/>
<path d="M50.9081 37.0096L41.116 31.403V42.6953L50.9081 37.0096Z" fill="#FFC52F"/>
<path d="M66.544 53.9089H25.4803V61.411H66.544V53.9089Z" fill="#CE24CE"/>
</svg>
