<svg width="145" height="91" viewBox="0 0 145 91" fill="none" xmlns="http://www.w3.org/2000/svg">
<path d="M65.4393 11.6391C77.6263 13.0174 86.6941 21.4323 85.6785 30.3549C85.3883 33.1115 84.1551 35.5779 82.2691 37.6091L94.2385 47.765L74.5795 42.6144C70.8074 43.9927 66.3824 44.573 61.7397 44.0653C49.5526 42.687 40.4849 34.2721 41.5005 25.3494C42.5161 16.3542 53.2523 10.2608 65.4393 11.6391Z" fill="#831EC1"/>
<mask id="mask0_610_797" style="mask-type:luminance" maskUnits="userSpaceOnUse" x="1" y="10" width="54" height="76">
<path d="M54.3399 10.4784H1.02161V85.5592H54.3399V10.4784Z" fill="white"/>
</mask>
<g mask="url(#mask0_610_797)">
<path d="M-6.37683 31.8785C-6.37683 31.8785 -8.26289 19.6189 1.82043 19.0386C11.9037 18.4582 10.598 23.8264 10.598 23.8264C10.598 23.8264 15.8935 13.1628 26.9924 17.5153C41.4282 23.2461 29.2412 35.3605 29.2412 35.3605C29.2412 35.3605 31.6351 47.1122 23.5105 47.1122C15.9661 47.1122 15.9661 47.1122 15.9661 47.1122C15.9661 47.1122 17.8522 51.2472 13.4996 53.3509C10.0902 55.0194 4.79463 50.4492 4.79463 50.4492L3.05361 56.9054C3.05361 56.9054 3.19869 70.2532 -2.38703 70.2532C-7.97276 70.3257 -14.5015 68.367 -18.5638 59.2993C-22.6262 50.2316 -14.7191 47.0398 -14.7191 47.0398C-14.7191 47.0398 -20.2323 33.1842 -6.37683 31.8785Z" fill="black"/>
<path d="M22.6388 92.5235L19.0118 75.5488C19.0118 75.5488 27.2815 78.5956 31.4164 70.1082C35.116 62.4913 34.8984 54.5841 34.8984 54.5841C34.8984 54.5841 37.8726 52.9157 37.5824 50.4493C37.3648 47.9828 34.8984 48.2004 34.8984 48.2004C34.8984 48.2004 33.7377 43.7755 32.1418 40.0033C31.2713 37.8996 30.2557 36.0135 29.2401 35.2881C29.2401 35.2881 22.4938 35.2879 13.7888 41.3089C6.24442 46.5319 4.79357 50.3766 4.79357 50.3766C4.79357 50.3766 -0.647035 45.5889 -3.33108 48.7808C-6.01513 51.9726 -4.12904 58.2838 -1.51754 59.1543C1.02143 60.0248 0.0783482 59.5896 0.0783482 59.5896L-7.68359 86.2124C-7.68359 86.2124 -0.501951 89.5493 4.64852 90.855C11.0322 92.596 22.6388 92.5235 22.6388 92.5235Z" fill="#F39DC2"/>
<path d="M32.6503 59.2994C32.6503 59.2994 30.9817 59.1544 29.2407 57.4134C28.2977 56.3978 28.0076 54.6568 28.0076 54.6568" stroke="black" stroke-miterlimit="10" stroke-linecap="round" stroke-linejoin="round"/>
<path d="M31.3438 47.1121C31.3438 47.1121 28.8048 47.5474 27.9343 49.506" stroke="black" stroke-miterlimit="10" stroke-linecap="round" stroke-linejoin="round"/>
<path d="M29.0214 46.354C30.1513 45.3338 30.6538 44.0489 30.1437 43.4839C29.6336 42.919 28.3042 43.288 27.1743 44.3082C26.0443 45.3284 25.5418 46.6133 26.0518 47.1783C26.5619 47.7433 27.8914 47.3742 29.0214 46.354Z" fill="black"/>
<path d="M22.0597 55.382C22.9812 55.382 23.7281 54.6349 23.7281 53.7135C23.7281 52.792 22.9812 52.045 22.0597 52.045C21.1383 52.045 20.3912 52.792 20.3912 53.7135C20.3912 54.6349 21.1383 55.382 22.0597 55.382Z" fill="#FFC52F"/>
<path d="M11.033 72.0667C11.033 72.0667 14.1523 75.6212 19.8831 75.8389" stroke="black" stroke-miterlimit="10" stroke-linecap="round" stroke-linejoin="round"/>
<path d="M1.74679 53.7137C1.74679 53.7137 0.00571066 51.3923 -1.59021 52.7706" stroke="black" stroke-miterlimit="10" stroke-linecap="round" stroke-linejoin="round"/>
<path d="M28.0076 35.4331C28.0076 35.4331 32.3601 36.0859 34.899 29.5571" stroke="black" stroke-miterlimit="10" stroke-linecap="round" stroke-linejoin="round"/>
</g>
<path d="M1.00002 85.5112L131.358 85.5112L131.358 0.999969L1.00002 0.999969L1.00002 85.5112Z" stroke="#CE24CE" stroke-miterlimit="10" stroke-linecap="round" stroke-linejoin="round"/>
<path d="M141.956 45.6677C141.956 45.6677 138.606 35.1589 125.01 30.8897C114.501 27.6057 106.357 33.1885 106.357 33.1885" stroke="#FFC52F" stroke-miterlimit="10"/>
<path d="M98.0812 88.4257L101.694 69.5098" stroke="#FFC52F" stroke-miterlimit="10"/>
<path d="M105.109 35.2247C105.109 35.2247 105.437 34.2395 106.357 33.1886C107.999 31.2839 111.546 28.8537 118.836 30.1016C130.33 32.0064 136.767 38.9027 141.167 52.8926C145.568 66.8825 144.911 75.9464 144.911 75.9464L128.163 80.938L121.792 55.4542L112.794 55.7826L101.891 45.6022L101.694 40.0194L105.109 35.2247Z" fill="#FFC52F"/>
<path d="M103.269 63.2701L99.9193 90.5273L119.623 84.025L116.339 64.4524L103.269 63.2701Z" fill="#FFC52F"/>
<path d="M109.64 32.5976C109.64 32.5976 106.421 30.2331 100.642 34.568C94.8617 38.9028 100.642 45.6022 100.642 45.6022L109.64 32.5976Z" fill="#FFC52F"/>
<path d="M113.253 88.4255L111.611 73.8446C111.611 73.8446 103.335 76.7345 99.8542 69.5754C96.7016 63.0731 96.8986 56.3736 96.8986 56.3736C96.8986 56.3736 94.4028 54.9286 94.5998 52.8925C94.7969 50.8565 96.8986 50.9879 96.8986 50.9879C96.8986 50.9879 97.8838 47.2441 99.1974 44.0257C99.9199 42.2524 100.774 40.6105 101.628 40.0193C101.628 40.0193 104.123 47.1784 111.02 50.9221C117.851 54.7316 122.382 52.827 122.382 52.827C122.382 52.827 127.046 48.7547 129.279 51.4476C131.578 54.1405 129.936 59.5262 127.768 60.2487C125.601 61.0368 125.601 60.4458 125.601 60.4458L130.921 81.7262C130.921 81.7262 126.717 85.3386 122.58 87.1119C118.442 89.0167 113.253 88.4255 113.253 88.4255Z" fill="#F39DC2"/>
<path d="M98.8038 60.3144C98.8038 60.3144 100.249 60.1831 101.694 58.6724C102.482 57.8186 102.745 56.3079 102.745 56.3079" stroke="black" stroke-miterlimit="10" stroke-linecap="round" stroke-linejoin="round"/>
<path d="M99.9193 50.0029C99.9193 50.0029 102.087 50.3312 102.809 52.0389" stroke="black" stroke-miterlimit="10" stroke-linecap="round" stroke-linejoin="round"/>
<path d="M104.198 50.1207C104.635 49.6361 104.204 48.534 103.235 47.6589C102.266 46.7839 101.126 46.4673 100.688 46.9519C100.25 47.4365 100.682 48.5388 101.651 49.4138C102.62 50.2889 103.76 50.6053 104.198 50.1207Z" fill="black"/>
<path d="M107.802 57.0963C108.6 57.0963 109.247 56.4492 109.247 55.6512C109.247 54.8531 108.6 54.2062 107.802 54.2062C107.004 54.2062 106.357 54.8531 106.357 55.6512C106.357 56.4492 107.004 57.0963 107.802 57.0963Z" fill="#FFC52F"/>
<path d="M117.129 71.1518C117.129 71.1518 113.713 74.1073 108.853 74.3701" stroke="black" stroke-miterlimit="10" stroke-linecap="round" stroke-linejoin="round"/>
<path d="M126.388 59.789C126.787 59.789 127.111 59.4656 127.111 59.0666C127.111 58.6676 126.787 58.3441 126.388 58.3441C125.989 58.3441 125.666 58.6676 125.666 59.0666C125.666 59.4656 125.989 59.789 126.388 59.789Z" fill="black"/>
<path d="M125.01 55.6511C125.01 55.6511 126.521 53.6808 127.834 54.863" stroke="black" stroke-miterlimit="10" stroke-linecap="round" stroke-linejoin="round"/>
<path d="M35.479 64.4498L43.9664 74.388C43.9664 74.7507 43.8938 75.0408 43.8938 75.4035C43.8938 84.036 50.8579 91 59.4903 91C68.1228 91 75.0868 84.036 75.0868 75.4035C75.0868 66.771 68.1228 59.807 59.4903 59.807C53.4694 59.807 48.3189 63.1439 45.7074 68.1493L35.479 64.4498Z" fill="#CE24CE"/>
</svg>
