<svg width="121" height="90" viewBox="0 0 121 90" fill="none" xmlns="http://www.w3.org/2000/svg">
<path d="M1.00006 85.3383L119.966 85.3383L119.966 8.21257L1.00006 8.21257L1.00006 85.3383Z" stroke="white" stroke-width="0.944171" stroke-miterlimit="10" stroke-linecap="round" stroke-linejoin="round"/>
<path d="M39.1897 77.8572H27.8638C25.5017 73.981 23.503 67.682 22.11 59.5055C19.6873 45.2724 21.4438 37.641 25.3806 34.6127C29.3174 31.5844 34.0416 32.0689 35.1318 33.2197C35.3135 33.4619 35.6769 33.583 36.1614 33.7647C38.1601 34.5521 41.9153 35.4 42.0364 40.4271C42.1575 46.6049 36.4642 62.2916 36.4642 62.2916L39.1897 77.8572Z" fill="#F39DC2"/>
<path d="M39.3109 35.2184C39.3109 35.2184 34.1627 33.5831 32.9514 35.2184C31.74 36.8537 35.7979 39.8215 38.6446 39.9426" stroke="black" stroke-width="0.863795" stroke-miterlimit="10" stroke-linecap="round" stroke-linejoin="round"/>
<path d="M28.7724 38.1862C28.7724 38.1862 32.2852 38.1257 33.3149 41.4568C34.3445 44.788 31.4373 46.3627 29.1963 45.6965C26.9553 45.0303 26.7131 43.6372 26.9554 42.7287C27.1976 41.7597 29.1358 40.73 30.226 41.5174" stroke="black" stroke-width="0.863795" stroke-miterlimit="10" stroke-linecap="round" stroke-linejoin="round"/>
<path d="M32.6485 36.1876L29.9835 34.9763" stroke="black" stroke-width="0.863795" stroke-miterlimit="10" stroke-linecap="round" stroke-linejoin="round"/>
<path d="M36.1009 20.5008L36.1615 33.7648L31.0739 33.2197L32.6486 21.6515C32.6486 21.6515 33.6177 18.5626 36.1009 20.5008Z" fill="#F39DC2"/>
<path d="M36.0404 33.5225C36.0404 33.5225 33.1331 32.4929 31.0739 32.3718" stroke="black" stroke-width="0.863795" stroke-miterlimit="10" stroke-linecap="round" stroke-linejoin="round"/>
<path d="M33.0726 20.8035C33.0726 20.8035 34.4656 21.8937 33.9811 23.2867C33.4965 24.7403 32.2852 24.4981 32.2852 24.4981" stroke="black" stroke-width="0.863795" stroke-miterlimit="10" stroke-linecap="round" stroke-linejoin="round"/>
<path d="M58.2682 39.7003C58.2682 39.7003 43.3083 34.9155 35.9797 46.6049C28.6512 58.2943 42.218 77.9178 42.218 77.9178L81.4046 72.164L74.5 59.7479L65.1728 42.4864L58.2682 39.7003Z" fill="#324FCD"/>
<path d="M43.0055 76.5854C53.4753 76.5854 61.9628 68.0979 61.9628 57.628C61.9628 47.1582 53.4753 38.6707 43.0055 38.6707C32.5356 38.6707 24.0481 47.1582 24.0481 57.628C24.0481 68.0979 32.5356 76.5854 43.0055 76.5854Z" fill="white"/>
<path d="M70.2603 59.5056L61.9021 40.1849C61.9021 40.1849 74.9239 36.1269 86.1287 51.3291C87.6429 53.3278 88.9148 55.2659 90.1261 57.0224C85.7653 57.9309 79.1636 59.9296 73.2886 64.1087L70.2603 59.5056Z" fill="#324FCD"/>
<path d="M56.8752 74.8289C62.7501 73.8599 78.4369 72.1034 78.4369 72.1034L73.2887 64.1087C79.1637 59.9296 85.7654 57.9309 90.1262 57.0224C97.8787 68.7723 99.514 75.6769 99.514 75.6769C99.514 75.6769 101.331 93.544 79.951 89.3649C58.571 85.1858 52.151 79.9165 52.151 79.9165C52.151 79.9165 48.4564 81.0673 42.8842 81.1279C33.7387 81.249 32.7697 75.374 32.7697 75.374L56.8752 74.8289Z" fill="#F39DC2"/>
<path d="M62.6895 30.3125C62.6895 30.3125 64.0825 36.4903 69.4729 35.2184C74.9239 33.886 73.3492 28.3138 73.3492 28.3138C73.3492 28.3138 82.0102 27.2842 81.2834 17.5935C80.5566 7.90289 70.0786 11.4158 70.0786 11.4158C70.0786 11.4158 73.4703 1.78569 63.3557 0.210962C53.1805 -1.36377 52.6354 6.32817 52.6354 6.32817C52.6354 6.32817 49.1226 1.24059 44.1561 4.75346C33.7992 12.1426 46.3971 20.9247 46.3971 20.9247L62.3866 16.14L62.6895 30.3125Z" fill="#FFC52F"/>
<path d="M71.5929 26.3756C71.3507 24.5586 69.2914 23.2867 67.0504 23.5896C66.9293 23.5896 66.8082 23.6501 66.687 23.6501L68.0195 18.3203L66.3842 16.9878C66.2025 13.9595 64.7489 11.1734 60.9332 9.41698C60.9332 9.41698 51.3031 5.84357 46.155 19.0471C42.8844 27.4658 46.7001 33.4014 50.8792 34.1887L49.8495 39.3974L63.8404 41.3356L65.1123 29.7068C65.8997 30.1308 66.9293 30.3125 67.9589 30.1914C70.1999 30.0097 71.8352 28.2532 71.5929 26.3756Z" fill="#F39DC2"/>
<path d="M66.6263 23.7108C52.4537 21.7727 52.0903 10.4467 52.0903 10.4467C52.0903 10.4467 56.5117 5.6014 63.7191 10.8707C71.9561 16.9274 66.6263 23.7108 66.6263 23.7108Z" fill="#FFC52F"/>
<path d="M65.839 26.9814C65.839 26.9814 67.5349 24.5587 70.0787 26.3757" stroke="black" stroke-width="0.863795" stroke-miterlimit="10" stroke-linecap="round" stroke-linejoin="round"/>
<path d="M66.505 29.7674C66.8061 29.7674 67.0501 29.5234 67.0501 29.2223C67.0501 28.9213 66.8061 28.6772 66.505 28.6772C66.204 28.6772 65.96 28.9213 65.96 29.2223C65.96 29.5234 66.204 29.7674 66.505 29.7674Z" fill="white"/>
<path d="M52.8173 25.0433C52.8173 25.0433 53.0596 27.3448 50.8186 26.7391" stroke="black" stroke-width="0.863795" stroke-miterlimit="10" stroke-linecap="round" stroke-linejoin="round"/>
<path d="M51.1819 19.9557C51.1819 19.9557 50.0917 22.5601 50.5156 23.2869" stroke="black" stroke-width="0.863795" stroke-miterlimit="10" stroke-linecap="round" stroke-linejoin="round"/>
<path d="M55.1188 22.8023C55.3864 22.8023 55.6033 22.5854 55.6033 22.3178C55.6033 22.0502 55.3864 21.8333 55.1188 21.8333C54.8512 21.8333 54.6343 22.0502 54.6343 22.3178C54.6343 22.5854 54.8512 22.8023 55.1188 22.8023Z" fill="black"/>
<path d="M47.5479 20.5008C47.8155 20.5008 48.0324 20.2839 48.0324 20.0163C48.0324 19.7487 47.8155 19.5317 47.5479 19.5317C47.2803 19.5317 47.0634 19.7487 47.0634 20.0163C47.0634 20.2839 47.2803 20.5008 47.5479 20.5008Z" fill="black"/>
<path d="M47.1768 18.8584C48.0938 18.542 48.7044 17.901 48.5407 17.4267C48.3771 16.9524 47.5011 16.8244 46.5841 17.1408C45.6671 17.4572 45.0564 18.0982 45.2201 18.5725C45.3837 19.0469 46.2598 19.1748 47.1768 18.8584Z" fill="black"/>
<path d="M57.4322 21.8619C57.7229 21.4529 57.3178 20.6657 56.5272 20.1036C55.7366 19.5415 54.86 19.4172 54.5692 19.8262C54.2784 20.2351 54.6836 21.0223 55.4742 21.5844C56.2648 22.1466 57.1414 22.2708 57.4322 21.8619Z" fill="black"/>
<path d="M56.6935 25.9518C57.2287 25.9518 57.6626 25.5179 57.6626 24.9827C57.6626 24.4475 57.2287 24.0137 56.6935 24.0137C56.1583 24.0137 55.7245 24.4475 55.7245 24.9827C55.7245 25.5179 56.1583 25.9518 56.6935 25.9518Z" fill="#FFC52F"/>
<path d="M56.7541 33.2197C56.7541 33.2197 54.2709 35.4607 49.7889 34.1888" stroke="black" stroke-width="0.863795" stroke-miterlimit="10" stroke-linecap="round" stroke-linejoin="round"/>
<path d="M63.7882 41.3997C63.9137 40.5053 60.8736 39.3392 56.9979 38.7952C53.1222 38.2512 49.8786 38.5353 49.7531 39.4297C49.6275 40.3241 52.6676 41.4901 56.5433 42.0341C60.419 42.5781 63.6626 42.2941 63.7882 41.3997Z" fill="#F39DC2"/>
<path d="M43.0054 73.3753C51.7024 73.3753 58.7527 66.325 58.7527 57.628C58.7527 48.931 51.7024 41.8807 43.0054 41.8807C34.3084 41.8807 27.2581 48.931 27.2581 57.628C27.2581 66.325 34.3084 73.3753 43.0054 73.3753Z" stroke="black" stroke-width="0.863795" stroke-miterlimit="10" stroke-linecap="round" stroke-linejoin="round"/>
<path d="M43.0054 58.5971C43.5406 58.5971 43.9745 58.1633 43.9745 57.6281C43.9745 57.0929 43.5406 56.659 43.0054 56.659C42.4702 56.659 42.0364 57.0929 42.0364 57.6281C42.0364 58.1633 42.4702 58.5971 43.0054 58.5971Z" fill="black"/>
<path d="M43.0053 45.6359V57.6281L31.5582 53.5096" stroke="black" stroke-width="0.863795" stroke-miterlimit="10" stroke-linecap="round" stroke-linejoin="round"/>
<path d="M82.8582 71.4978L54.2102 74.829" stroke="black" stroke-width="0.863795" stroke-miterlimit="10" stroke-linecap="round" stroke-linejoin="round"/>
<path d="M71.1082 60.7776L75.59 67.6216" stroke="black" stroke-width="0.863795" stroke-miterlimit="10" stroke-linecap="round" stroke-linejoin="round"/>
<path d="M51.3031 75.8586L43.066 72.7091" stroke="#F39DC2" stroke-width="0.863795" stroke-miterlimit="10" stroke-linecap="round"/>
<path d="M44.883 74.8289L32.8907 75.2529C32.8907 75.2529 33.0725 76.0403 33.7387 77.0699" stroke="black" stroke-width="0.863795" stroke-miterlimit="10" stroke-linecap="round" stroke-linejoin="round"/>
</svg>
