<svg aria-hidden="true" style="position: absolute; width: 0; height: 0; overflow: hidden;" version="1.1" xmlns="http://www.w3.org/2000/svg" xmlns:xlink="http://www.w3.org/1999/xlink">
<defs>
<symbol id="amr-logo" viewBox="0 0 37 32">
<path d="M29.793 26.602c0-0.461-0.13-0.798-0.389-1.011s-0.631-0.32-1.11-0.32h-0.388v2.896h0.373c0.481 0 0.853-0.125 1.116-0.374s0.396-0.647 0.398-1.191zM33.108 31.731h-2.653c-0.459-0.698-0.838-1.256-1.143-1.669s-0.68-0.893-1.132-1.437h-0.274v2.092c-0.004 0.102 0.019 0.204 0.066 0.295 0.059 0.094 0.147 0.166 0.251 0.205 0.095 0.035 0.192 0.062 0.291 0.080 0.112 0.025 0.225 0.044 0.34 0.056v0.378h-3.694v-0.378c0.096-0.010 0.22-0.023 0.375-0.042 0.113-0.009 0.224-0.032 0.331-0.066 0.103-0.035 0.191-0.104 0.25-0.196 0.045-0.095 0.066-0.199 0.063-0.303v-4.866c0.003-0.1-0.015-0.199-0.053-0.292-0.037-0.078-0.123-0.146-0.26-0.204-0.119-0.047-0.243-0.083-0.369-0.108-0.141-0.028-0.255-0.050-0.337-0.063v-0.379h3.886c0.869 0 1.529 0.135 1.981 0.406s0.677 0.681 0.676 1.23c0 0.482-0.141 0.872-0.417 1.166s-0.702 0.523-1.273 0.688c0.221 0.284 0.479 0.613 0.773 0.989 0.295 0.375 0.601 0.76 0.92 1.151 0.101 0.126 0.238 0.282 0.412 0.463s0.326 0.296 0.461 0.337c0.092 0.027 0.187 0.047 0.283 0.058 0.115 0.017 0.198 0.027 0.246 0.030l0.001 0.378zM22.86 31.731h-3.743v-0.378c0.11-0.010 0.245-0.027 0.406-0.049 0.111-0.011 0.221-0.035 0.328-0.071 0.104-0.038 0.194-0.107 0.256-0.199 0.057-0.099 0.084-0.211 0.081-0.324v-5.152l-2.375 6.065h-0.614c-0.028-0.108-0.101-0.32-0.216-0.635s-0.208-0.572-0.283-0.763l-1.746-4.745v4.195c-0.009 0.308 0.018 0.615 0.080 0.917 0.036 0.177 0.127 0.338 0.262 0.46 0.132 0.091 0.28 0.157 0.436 0.194 0.144 0.047 0.291 0.083 0.441 0.108v0.378h-2.986v-0.378c0.082-0.010 0.212-0.032 0.396-0.066 0.162-0.024 0.316-0.085 0.451-0.178 0.13-0.090 0.218-0.244 0.262-0.46 0.053-0.303 0.077-0.61 0.071-0.917v-3.423c0.005-0.176-0.022-0.351-0.079-0.518-0.046-0.13-0.127-0.244-0.235-0.329-0.117-0.094-0.254-0.16-0.4-0.194-0.137-0.028-0.275-0.048-0.415-0.058v-0.379h3.202l1.691 4.54 1.442-3.683c0.056-0.16 0.103-0.322 0.141-0.487 0.032-0.122 0.055-0.245 0.071-0.37h3.063v0.379c-0.105 0.006-0.212 0.020-0.328 0.038-0.111 0.019-0.22 0.045-0.328 0.078-0.054 0.014-0.104 0.039-0.148 0.073s-0.079 0.078-0.104 0.128c-0.042 0.095-0.063 0.197-0.062 0.3v4.887c-0.003 0.102 0.018 0.202 0.062 0.294 0.059 0.095 0.147 0.168 0.252 0.207 0.104 0.040 0.211 0.067 0.321 0.082 0.148 0.025 0.262 0.044 0.344 0.054l0.004 0.378zM8.071 28.944l-1.010-2.521-0.997 2.523 2.007-0.002zM11.687 31.731h-3.764v-0.378c0.21-0.018 0.419-0.050 0.625-0.095 0.24-0.052 0.359-0.115 0.359-0.19-0-0.029-0.003-0.058-0.008-0.087-0.008-0.046-0.022-0.090-0.040-0.133l-0.594-1.437h-2.396c-0.055 0.135-0.115 0.291-0.181 0.47s-0.125 0.338-0.173 0.48c-0.047 0.128-0.084 0.261-0.11 0.395-0.009 0.057-0.015 0.114-0.017 0.172 0 0.103 0.079 0.193 0.236 0.266s0.424 0.126 0.791 0.159v0.378h-2.836v-0.378c0.122-0.009 0.243-0.026 0.363-0.051 0.113-0.019 0.221-0.057 0.32-0.115 0.129-0.074 0.244-0.171 0.337-0.287 0.098-0.121 0.176-0.257 0.231-0.403 0.377-0.911 0.755-1.824 1.132-2.739l1.254-3.024h0.973c0.636 1.563 1.134 2.798 1.495 3.706s0.667 1.66 0.92 2.257c0.041 0.096 0.096 0.185 0.161 0.266 0.155 0.176 0.364 0.296 0.594 0.343 0.107 0.023 0.216 0.040 0.326 0.049l0.001 0.377z"></path>
<path d="M2.854 28.991h-2.854v0.2h2.854v-0.2z"></path>
<path d="M36.682 28.991h-2.854v0.2h2.854v-0.2z"></path>
<path d="M3.485 21.682h1.14l2.813-10.028c0.9-3.095 1.744-6.367 2.648-9.433 0.056-0.19 0.136-0.439 0.183-0.639 0.649 0 1.25-0.124 1.777-0.252l1.648-0.443 2.486 10.416c0.429 1.701 0.822 3.477 1.256 5.195 0.117 0.46 1.132 4.904 1.268 5.183h14.524c-0.022-0.266-0.225-0.705-0.308-0.957l-1.032-2.891c-1.415-3.765-3.129-8.655-4.457-12.436-0.495-1.415-0.303-1.558-1.914-2.011-3.325-0.938-6.736-2.002-10.061-2.93-1.459-0.407-1.426-0.456-2.9-0.456-1.114 0-2.179 0.475-2.821 0.981-0.307 0.242-0.372 0.846-0.533 1.365s-0.309 0.998-0.451 1.51c-0.671 2.412-1.497 4.989-2.198 7.417l-2.203 7.415c-0.153 0.514-0.269 0.971-0.429 1.468l-0.436 1.525z"></path>
<path d="M7.927 21.682h1.078v-1.517h6.092c-0.013-0.278-0.056-0.553-0.127-0.822h-4.062v-1.39h3.805c-0.020-0.256-0.062-0.51-0.127-0.759-0.296 0-0.592 0-0.889 0-0.915 0.006-0.76 0.25-0.76-1.454h1.395c0-0.433-1.12-6.444-1.196-6.898l-1.255-6.796-1.973 9.727c-0.591 2.913-1.321 7.083-1.981 9.909z"></path>
<path d="M17.5 21.683l-0.557-2.352c-0.196-0.824-0.368-1.572-0.559-2.414l-3.069-13.188c-0.054-0.221-0.091-0.362-0.141-0.616-0.018-0.085-0.033-0.174-0.071-0.309l-0.083-0.233c-0.006-0.015-0.013-0.029-0.021-0.042 0 0.331 0.347 2.011 0.439 2.468l3.108 16.117c0.141 0.751 0.044 0.564 0.957 0.564l-0.001 0.004zM12.935 2.53h0.063v-0.316h-0.063v0.316zM12.871 2.151c0 0.162 0.1 0.011 0.037 0-0.001 0-0.037-0.176-0.037 0z"></path>
<path d="M5.899 21.682h0.884l0.481-2.302c0.437-2.226 1.017-4.641 1.49-6.922 0.312-1.506 0.675-3.081 0.995-4.571 0.171-0.796 0.319-1.492 0.495-2.286 0.094-0.423 0.162-0.731 0.244-1.148 0.078-0.395 0.227-0.831 0.227-1.227-0.127 0.198-1.686 6.395-1.826 6.902l-2.989 11.555zM10.719 2.972l0.064 0.253c0.001-0.041 0-0.081-0.004-0.122-0.036-0.112-0.025-0.071-0.063-0.131h0.004zM10.783 2.972c0.075-0.118 0.071 0.141 0.052-0.126-0.010-0.135-0.008-0.056-0.052-0.126v0.252z"></path>
</symbol>
<symbol id="phone" viewBox="0 0 32 32">
<path d="M10.826 3.882c-0.381-0.92-1.385-1.41-2.345-1.148l-4.354 1.188c-0.861 0.237-1.46 1.019-1.46 1.91 0 12.241 9.926 22.167 22.167 22.167 0.891 0 1.672-0.599 1.91-1.46l1.187-4.354c0.262-0.96-0.228-1.964-1.148-2.345l-4.75-1.979c-0.807-0.337-1.742-0.104-2.291 0.574l-1.999 2.439c-3.483-1.648-6.304-4.468-7.951-7.951l2.439-1.994c0.678-0.554 0.91-1.484 0.574-2.291l-1.979-4.75v-0.005z"></path>
</symbol>
<symbol id="youtube" viewBox="0 0 32 32">
<path d="M23.654 12.074c-0.191-0.705-0.752-1.259-1.465-1.446-1.292-0.342-6.474-0.342-6.474-0.342s-5.182 0-6.474 0.342c-0.713 0.188-1.274 0.741-1.465 1.446-0.346 1.277-0.346 3.938-0.346 3.938s0 2.661 0.346 3.938c0.191 0.705 0.752 1.235 1.465 1.423 1.292 0.342 6.474 0.342 6.474 0.342s5.182 0 6.474-0.342c0.713-0.188 1.274-0.72 1.465-1.423 0.346-1.277 0.346-3.938 0.346-3.938s0-2.661-0.346-3.938zM14.021 18.429v-4.833l4.329 2.417-4.329 2.417z"></path>
</symbol>
<symbol id="instagram" viewBox="0 0 32 32">
<path d="M16.002 12.483c-1.946 0-3.515 1.57-3.515 3.515s1.569 3.515 3.515 3.515c1.946 0 3.515-1.57 3.515-3.515s-1.57-3.515-3.515-3.515zM16.002 18.284c-1.258 0-2.285-1.025-2.285-2.285s1.025-2.285 2.285-2.285c1.261 0 2.285 1.025 2.285 2.285s-1.028 2.285-2.285 2.285zM20.481 12.339c0 0.456-0.367 0.82-0.82 0.82-0.456 0-0.82-0.367-0.82-0.82s0.367-0.82 0.82-0.82c0.453 0 0.82 0.367 0.82 0.82zM22.809 13.171c-0.052-1.098-0.303-2.071-1.108-2.873-0.802-0.802-1.774-1.052-2.873-1.108-1.132-0.064-4.525-0.064-5.657 0-1.095 0.052-2.068 0.303-2.873 1.104s-1.052 1.774-1.108 2.873c-0.064 1.132-0.064 4.525 0 5.657 0.052 1.098 0.303 2.071 1.108 2.873s1.774 1.052 2.873 1.108c1.132 0.064 4.525 0.064 5.657 0 1.098-0.052 2.071-0.303 2.873-1.108 0.802-0.802 1.052-1.774 1.108-2.873 0.064-1.132 0.064-4.522 0-5.654zM21.346 20.040c-0.239 0.6-0.701 1.062-1.303 1.303-0.903 0.358-3.044 0.275-4.042 0.275s-3.142 0.080-4.042-0.275c-0.6-0.239-1.062-0.701-1.303-1.303-0.358-0.903-0.275-3.044-0.275-4.042s-0.080-3.142 0.275-4.042c0.239-0.6 0.701-1.062 1.303-1.303 0.903-0.358 3.044-0.275 4.042-0.275s3.142-0.080 4.042 0.275c0.6 0.239 1.062 0.701 1.303 1.303 0.358 0.903 0.275 3.044 0.275 4.042s0.083 3.142-0.275 4.042z"></path>
</symbol>
<symbol id="facebook" viewBox="0 0 32 32">
<path d="M21.388 9.143h-10.776c-0.39 0-0.763 0.155-1.039 0.43s-0.43 0.649-0.43 1.039v10.776c0 0.39 0.155 0.763 0.43 1.039s0.649 0.43 1.039 0.43h4.202v-4.663h-1.929v-2.195h1.929v-1.673c0-1.903 1.133-2.954 2.867-2.954 0.831 0 1.7 0.148 1.7 0.148v1.867h-0.957c-0.943 0-1.237 0.585-1.237 1.186v1.425h2.105l-0.337 2.195h-1.769v4.663h4.202c0.39 0 0.763-0.155 1.039-0.43s0.43-0.649 0.43-1.039v-10.776c0-0.39-0.155-0.763-0.43-1.039s-0.649-0.43-1.039-0.43z"></path>
</symbol>
<symbol id="burger-menu" viewBox="0 0 31 32">
<path d="M7.758 9.836c0-0.613 0.481-1.108 1.077-1.108h12.919c0.595 0 1.077 0.495 1.077 1.108s-0.481 1.108-1.077 1.108h-12.919c-0.595 0-1.077-0.495-1.077-1.108zM7.758 15.377c0-0.613 0.481-1.108 1.077-1.108h12.919c0.595 0 1.077 0.495 1.077 1.108s-0.481 1.108-1.077 1.108h-12.919c-0.595 0-1.077-0.495-1.077-1.108zM22.829 20.918c0 0.613-0.481 1.108-1.077 1.108h-12.919c-0.595 0-1.077-0.495-1.077-1.108s0.481-1.108 1.077-1.108h12.919c0.595 0 1.077 0.495 1.077 1.108z"></path>
</symbol>
<symbol id="close" viewBox="0 0 31 32">
<path d="M21.745 11.773c0.554-0.554 0.554-1.453 0-2.007s-1.453-0.554-2.007 0l-4.666 4.67-4.67-4.666c-0.554-0.554-1.453-0.554-2.007 0s-0.554 1.453 0 2.007l4.67 4.666-4.666 4.67c-0.554 0.554-0.554 1.453 0 2.007s1.453 0.554 2.007 0l4.666-4.67 4.67 4.666c0.554 0.554 1.453 0.554 2.007 0s0.554-1.453 0-2.007l-4.67-4.666 4.666-4.67z"></path>
</symbol>
</defs>
</svg>
