<svg width="633" height="177" viewBox="0 0 633 177" fill="none" xmlns="http://www.w3.org/2000/svg">
<path d="M191.617 36.1138C141.003 19.6991 87.7914 20.3842 35.7691 27.2575C26.7009 28.4556 6.69111 29.1162 2.38641 42.5941C-1.99341 56.3071 4.79922 72.3118 11.6852 83.0956C24.0278 102.425 42.3731 114.915 61.0619 124.461C108.197 148.539 160.421 161.537 211.331 168.743C247.78 173.902 284.681 174.325 321.335 175.007C376.511 176.034 432.074 177.488 487.133 172.199C518.123 169.222 549.336 164.009 579.005 152.758C594.649 146.826 612.84 138.506 623.268 122.733C655.193 74.4426 591.56 37.0017 561.152 26.1774C477.325 -3.66214 386.678 0.525162 300.134 2.20048C255.009 3.07403 209.948 5.73414 164.837 6.95267" stroke="#831EC1" stroke-linecap="round"/>
</svg>
