<svg width="786" height="403" viewBox="0 0 786 403" fill="none" xmlns="http://www.w3.org/2000/svg">
<path d="M382.955 246.622C382.955 246.622 201.155 139.127 123.878 172.316C46.1047 206.001 81.7713 246.622 81.7713 246.622C81.7713 246.622 60.4705 267.922 73.8455 290.709C87.2205 313.496 99.6044 314.984 99.6044 314.984C99.6044 314.984 87.7155 332.817 92.6692 344.21C99.6043 360.558 111.989 359.567 111.989 359.567C111.989 359.567 99.6046 371.95 118.924 387.802C138.243 403.654 300.724 404.646 348.279 401.674C395.835 398.206 785.314 387.802 785.314 387.802L757.713 344.21L764.942 246.622H382.955Z" fill="#F39DC2"/>
<path d="M95.6415 213.928C95.6415 213.928 139.234 224.332 142.206 245.633C145.178 266.934 140.721 266.933 140.721 266.933C140.721 266.933 110.008 274.858 81.7715 246.622" stroke="#0D1321" stroke-miterlimit="10" stroke-linecap="round" stroke-linejoin="round"/>
<path d="M99.1094 314.987C99.1094 314.987 128.336 327.37 176.882 313.5" stroke="#0D1321" stroke-miterlimit="10" stroke-linecap="round" stroke-linejoin="round"/>
<path d="M111.492 359.57C111.492 359.57 150.131 367.496 193.228 354.121" stroke="#0D1321" stroke-miterlimit="10" stroke-linecap="round" stroke-linejoin="round"/>
<path d="M185.301 298.637L194.217 257.027H254.652C254.652 257.027 215.518 319.444 285.365 361.55" stroke="#0D1321" stroke-miterlimit="10" stroke-linecap="round" stroke-linejoin="round"/>
<path d="M125.857 97.5176L151.803 222.123" stroke="#FFC52F" stroke-width="3" stroke-miterlimit="10" stroke-linecap="round" stroke-linejoin="round"/>
<path d="M217.655 -0.000140416L0 48.1274L32.4057 194.681L250.061 146.553L217.655 -0.000140416Z" fill="#CE24CE"/>
<path d="M247.223 208.479C247.223 208.479 158.551 203.526 150.13 228.79C142.7 250.586 140.223 266.933 140.223 266.933C140.223 266.933 169.45 264.456 180.843 284.766C192.237 305.077 176.385 313.993 176.385 313.993C176.385 313.993 196.695 307.057 202.144 327.862C207.593 348.668 193.228 354.118 193.228 354.118C193.228 354.118 215.519 348.174 216.014 368.979C217.005 390.28 177.871 399.197 177.871 399.197" stroke="#0D1321" stroke-miterlimit="10" stroke-linecap="round" stroke-linejoin="round"/>
<path d="M55.0163 121.293L51.1914 103.413L52.5189 104.272L44.8345 105.916L44 102.015L61.94 98.1771L62.7745 102.078L55.0902 103.722L55.9202 102.401L59.7451 120.282L55.0163 121.293Z" fill="white"/>
<path d="M68.6708 118.373L65.2695 102.472L69.8506 101.492L71.8736 110.95L77.594 99.8356L81.8204 98.9315L85.2217 114.832L80.6407 115.812L78.6176 106.355L72.9268 117.462L68.6708 118.373Z" fill="white"/>
<path d="M105.641 110.712C103.926 111.078 102.326 111.06 100.838 110.657C99.3468 110.234 98.084 109.485 97.0501 108.408C96.0358 107.327 95.3601 105.998 95.0229 104.422C94.6815 102.826 94.7545 101.337 95.2419 99.9549C95.7448 98.5492 96.5924 97.3583 97.7848 96.382C98.9729 95.3861 100.424 94.7048 102.138 94.3381C103.813 93.9799 105.347 94.0226 106.74 94.4664C108.129 94.8905 109.258 95.6896 110.127 96.8635L106.962 99.5496C106.388 98.8894 105.748 98.4494 105.041 98.2296C104.355 98.0056 103.647 97.9716 102.918 98.1275C102.13 98.2961 101.458 98.6252 100.904 99.1147C100.349 99.6042 99.9541 100.214 99.7188 100.944C99.5033 101.671 99.4945 102.497 99.6926 103.423C99.8907 104.349 100.237 105.099 100.73 105.673C101.244 106.243 101.854 106.638 102.56 106.858C103.266 107.078 104.014 107.104 104.802 106.935C105.531 106.779 106.165 106.468 106.704 106.003C107.259 105.513 107.661 104.84 107.91 103.983L111.904 105.169C111.587 106.576 110.883 107.767 109.794 108.742C108.7 109.697 107.315 110.353 105.641 110.712Z" fill="white"/>
<path d="M118.718 113.91C117.891 114.087 117.046 114.134 116.183 114.051C115.32 113.968 114.585 113.754 113.975 113.41L114.958 109.769C115.38 110.009 115.837 110.169 116.328 110.249C116.839 110.325 117.321 110.315 117.774 110.218C118.424 110.079 118.903 109.812 119.21 109.416C119.541 109.036 119.788 108.458 119.951 107.681L120.362 105.554L120.609 104.975L123.379 90.0417L127.813 89.0934L124.241 107.506C124.002 108.896 123.626 110.027 123.112 110.9C122.618 111.768 121.999 112.436 121.254 112.904C120.529 113.368 119.684 113.704 118.718 113.91ZM120.293 107.979L109.666 92.9751L114.424 91.9573L122.766 104.081L120.293 107.979Z" fill="white"/>
<path d="M133.438 104.518L130.037 88.6176L145.849 85.2352L149.25 101.136L144.64 102.122L141.826 88.9701L143.082 89.7833L134.393 91.642L135.206 90.3863L138.019 103.538L133.438 104.518Z" fill="white"/>
<path d="M161.494 98.764C159.682 99.1518 158.01 99.1385 156.479 98.7242C154.968 98.3057 153.707 97.5658 152.697 96.5043C151.683 95.4231 151.007 94.0944 150.67 92.5182C150.328 90.9222 150.392 89.4354 150.859 88.0578C151.342 86.6564 152.151 85.4738 153.284 84.5102C154.413 83.527 155.785 82.8625 157.401 82.5169C158.957 82.1839 160.428 82.2197 161.813 82.624C163.213 83.0045 164.41 83.7374 165.405 84.8228C166.395 85.8885 167.074 87.2784 167.44 88.9926C167.478 89.1699 167.513 89.3789 167.543 89.6196C167.57 89.8405 167.595 90.0516 167.617 90.2529L154.701 93.0157L154.126 90.3261L164.618 88.0818L163.016 89.2591C162.839 88.4316 162.517 87.7482 162.052 87.2091C161.586 86.6699 161.022 86.2961 160.359 86.0875C159.692 85.8593 158.965 85.8295 158.176 85.9981C157.388 86.1667 156.727 86.4936 156.192 86.979C155.672 87.4404 155.313 88.0221 155.113 88.7243C154.908 89.4068 154.897 90.1716 155.078 91.0189L155.23 91.7282C155.415 92.5951 155.767 93.3235 156.284 93.9134C156.818 94.4793 157.467 94.8658 158.232 95.073C159.013 95.2562 159.877 95.2467 160.822 95.0444C161.67 94.8631 162.381 94.577 162.957 94.186C163.552 93.7907 164.061 93.2801 164.484 92.654L167.506 94.7892C166.954 95.7727 166.174 96.6091 165.168 97.2983C164.157 97.9678 162.933 98.4564 161.494 98.764Z" fill="white"/>
<path d="M182.082 94.3602C180.742 94.6468 179.507 94.602 178.375 94.2259C177.244 93.8497 176.264 93.1218 175.436 92.0421C174.623 90.9385 174.018 89.4606 173.622 87.6085C173.221 85.7367 173.159 84.1429 173.433 82.8272C173.708 81.5115 174.285 80.4506 175.163 79.6446C176.042 78.8385 177.181 78.2859 178.58 77.9866C180.077 77.6663 181.491 77.7245 182.82 78.1612C184.166 78.574 185.314 79.3175 186.265 80.3916C187.235 81.4615 187.898 82.824 188.252 84.4791C188.61 86.1539 188.565 87.6779 188.117 89.0513C187.689 90.4204 186.945 91.5685 185.887 92.4955C184.848 93.4183 183.579 94.0399 182.082 94.3602ZM173.859 101.868L169.232 80.2335L173.635 79.2915L174.331 82.5426L175.254 87.2904L176.554 91.9264L178.47 100.882L173.859 101.868ZM180.475 90.7478C181.243 90.5834 181.885 90.2607 182.4 89.7796C182.935 89.2943 183.31 88.6886 183.526 87.9625C183.757 87.2125 183.776 86.3843 183.582 85.478C183.384 84.5519 183.028 83.8038 182.515 83.2337C182.021 82.6593 181.431 82.2601 180.744 82.0361C180.077 81.8079 179.359 81.776 178.591 81.9404C177.822 82.1047 177.171 82.4296 176.636 82.9149C176.101 83.4002 175.725 84.0059 175.51 84.732C175.294 85.4581 175.286 86.2842 175.484 87.2102C175.678 88.1166 176.024 88.8668 176.521 89.4608C177.015 90.0352 177.605 90.4344 178.292 90.6584C178.979 90.8824 179.706 90.9122 180.475 90.7478Z" fill="white"/>
<path d="M191.884 84.5057L188.078 71.1949L193.576 70.019L195.549 83.7217L191.884 84.5057ZM195.303 91.5321C194.476 91.7091 193.739 91.5885 193.093 91.1703C192.447 90.7521 192.046 90.1785 191.89 89.4495C191.73 88.7007 191.864 88.0232 192.29 87.4168C192.713 86.7907 193.338 86.3892 194.165 86.2121C195.012 86.0309 195.747 86.1416 196.369 86.5443C197.006 86.9231 197.405 87.4869 197.565 88.2356C197.721 88.9647 197.59 89.6521 197.172 90.2979C196.773 90.9394 196.15 91.3508 195.303 91.5321Z" fill="white"/>
</svg>
