<svg width="16" height="16" viewBox="0 0 16 16" fill="none" xmlns="http://www.w3.org/2000/svg">
<g clip-path="url(#clip0_184_4441)">
<path fill-rule="evenodd" clip-rule="evenodd" d="M7.6702 15.3392C3.47052 15.3392 0.0012207 11.8699 0.0012207 7.6702C0.0012207 3.47052 3.46463 0.0012207 7.66431 0.0012207C11.864 0.0012207 15.3392 3.47052 15.3392 7.6702C15.3392 11.8699 11.8699 15.3392 7.6702 15.3392ZM6.72725 11.5218C6.94519 11.5218 7.13367 11.4217 7.27504 11.2038L11.2332 5.00142C11.3216 4.87184 11.3981 4.7128 11.3981 4.57144C11.3981 4.25926 11.1213 4.06488 10.8327 4.06488C10.6619 4.06488 10.4911 4.16502 10.3615 4.36528L6.6978 10.1906L4.74816 7.74623C4.59502 7.55186 4.43598 7.48117 4.2475 7.48117C3.95888 7.48117 3.71738 7.71089 3.71738 8.02307C3.71738 8.17032 3.77628 8.32936 3.87642 8.45305L6.15002 11.2096C6.33261 11.4335 6.50932 11.5218 6.72725 11.5218Z" fill="#CE24CE"/>
</g>
<defs>
<clipPath id="clip0_184_4441">
<rect width="15.338" height="15.338" fill="white"/>
</clipPath>
</defs>
</svg>
