<svg width="458" height="120" viewBox="0 0 458 120" fill="none" xmlns="http://www.w3.org/2000/svg">
<path d="M138.752 24.6767C102.175 13.6085 63.7209 14.0705 26.1263 18.705C19.5731 19.5129 5.11275 19.9584 2.00191 29.0463C-1.16323 38.2928 3.74556 49.0846 8.72181 56.3559C17.6413 69.3892 30.8988 77.811 44.4045 84.2482C78.4674 100.483 116.208 109.248 152.998 114.107C179.339 117.585 206.006 117.871 232.494 118.331C272.368 119.023 312.521 120.004 352.31 116.437C374.705 114.43 397.262 110.915 418.703 103.328C430.008 99.3285 443.154 93.7186 450.689 83.083C473.76 50.5213 427.775 25.2754 405.801 17.9768C345.222 -2.14362 279.715 0.679823 217.173 1.80947C184.562 2.39849 151.999 4.19216 119.399 5.0138" stroke="#CE24CE" stroke-opacity="0.32" stroke-linecap="round"/>
</svg>
