<svg width="289" height="70" viewBox="0 0 289 70" fill="none" xmlns="http://www.w3.org/2000/svg">
<path d="M87.6991 14.6442C64.678 8.26593 40.4757 8.53215 16.8142 11.2029C12.6896 11.6684 3.58851 11.9252 1.63059 17.1623C-0.361504 22.4908 2.72801 28.7097 5.86 32.9C11.4738 40.4107 19.8179 45.264 28.3182 48.9735C49.7569 58.3294 73.5102 63.3803 96.6654 66.1801C113.244 68.1848 130.028 68.3493 146.699 68.6142C171.795 69.0131 197.067 69.5783 222.11 67.5231C236.205 66.3663 250.402 64.3407 263.896 59.969C271.011 57.6639 279.285 54.431 284.028 48.302C298.549 29.5377 269.606 14.9892 255.776 10.7832C217.649 -0.811575 176.419 0.815491 137.056 1.46647C116.532 1.80591 96.0368 2.83955 75.5184 3.31304" stroke="#CE24CE" stroke-opacity="0.32" stroke-linecap="round"/>
</svg>
