<svg width="136" height="111" viewBox="0 0 136 111" fill="none" xmlns="http://www.w3.org/2000/svg">
<path d="M1 96.2925L135.234 96.2925L135.234 9.26841L1 9.26841L1 96.2925Z" stroke="white" stroke-miterlimit="10" stroke-linecap="round" stroke-linejoin="round"/>
<path d="M46.0006 96.026H32.0319C29.1187 91.2452 26.6536 83.4766 24.9355 73.3922C21.9476 55.838 24.1139 46.426 28.9693 42.6911C33.8247 38.9561 39.6512 39.5537 40.9958 40.973C41.2199 41.2718 41.668 41.4212 42.2656 41.6453C44.7307 42.6163 49.3621 43.6621 49.5115 49.8621C49.6609 57.4814 42.6391 76.8284 42.6391 76.8284L46.0006 96.026Z" fill="#F39DC2"/>
<path d="M46.15 43.438C46.15 43.438 39.8006 41.4212 38.3067 43.438C36.8127 45.4549 41.8174 49.1151 45.3283 49.2645" stroke="black" stroke-miterlimit="10" stroke-linecap="round" stroke-linejoin="round"/>
<path d="M33.1524 47.0983C33.1524 47.0983 37.4849 47.0236 38.7548 51.132C40.0247 55.2405 36.4391 57.1826 33.6752 56.3609C30.9114 55.5392 30.6126 53.8212 30.9114 52.7007C31.2102 51.5055 33.6006 50.2356 34.9452 51.2067" stroke="black" stroke-miterlimit="10" stroke-linecap="round" stroke-linejoin="round"/>
<path d="M37.9332 44.6332L34.6464 43.1393" stroke="black" stroke-miterlimit="10" stroke-linecap="round" stroke-linejoin="round"/>
<path d="M42.1909 25.2862L42.2656 41.6452L35.9909 40.973L37.9331 26.7055C37.9331 26.7055 39.1283 22.8959 42.1909 25.2862Z" fill="#F39DC2"/>
<path d="M42.1163 41.3465C42.1163 41.3465 38.5307 40.0766 35.9909 39.9272" stroke="black" stroke-miterlimit="10" stroke-linecap="round" stroke-linejoin="round"/>
<path d="M38.456 25.6598C38.456 25.6598 40.1741 27.0043 39.5765 28.7224C38.9789 30.5152 37.4849 30.2164 37.4849 30.2164" stroke="black" stroke-miterlimit="10" stroke-linecap="round" stroke-linejoin="round"/>
<path d="M69.5307 48.9657C69.5307 48.9657 51.0801 43.0645 42.0416 57.4814C33.003 71.8982 49.7355 96.1007 49.7355 96.1007L98.0657 89.0043L89.55 73.691L78.0464 52.4019L69.5307 48.9657Z" fill="#324FCD"/>
<path d="M50.7066 94.4573C63.6194 94.4573 74.0873 83.9894 74.0873 71.0766C74.0873 58.1638 63.6194 47.6959 50.7066 47.6959C37.7938 47.6959 27.3258 58.1638 27.3258 71.0766C27.3258 83.9894 37.7938 94.4573 50.7066 94.4573Z" fill="white"/>
<path d="M84.3211 73.3923L74.0126 49.5634C74.0126 49.5634 90.0728 44.5585 103.892 63.3079C105.76 65.773 107.328 68.1634 108.822 70.3296C103.444 71.4501 95.3018 73.9152 88.056 79.0694L84.3211 73.3923Z" fill="#324FCD"/>
<path d="M67.8126 92.291C75.0584 91.0958 94.4054 88.9296 94.4054 88.9296L88.056 79.0694C95.3018 73.9151 103.444 71.4501 108.822 70.3296C118.384 84.8212 120.401 93.3368 120.401 93.3368C120.401 93.3368 122.642 115.373 96.2729 110.219C69.9042 105.065 61.9861 98.5657 61.9861 98.5657C61.9861 98.5657 57.4294 99.985 50.5572 100.06C39.2776 100.209 38.0825 92.9633 38.0825 92.9633L67.8126 92.291Z" fill="#F39DC2"/>
<path d="M74.9837 37.3874C74.9837 37.3874 76.7018 45.0067 83.35 43.438C90.0729 41.7947 88.1307 34.9224 88.1307 34.9224C88.1307 34.9224 98.8126 33.6525 97.9162 21.7007C97.0198 9.74886 84.0969 14.0814 84.0969 14.0814C84.0969 14.0814 88.2801 2.20431 75.8054 0.262144C63.256 -1.68003 62.5838 7.8067 62.5838 7.8067C62.5838 7.8067 58.2512 1.53202 52.1259 5.86455C39.3524 14.9778 54.8897 25.8091 54.8897 25.8091L74.6102 19.9079L74.9837 37.3874Z" fill="#FFC52F"/>
<path d="M85.9644 32.532C85.6656 30.291 83.1259 28.7224 80.362 29.0959C80.2126 29.0959 80.0632 29.1706 79.9138 29.1706L81.5572 22.5971L79.5403 20.9537C79.3162 17.2188 77.5235 13.7826 72.8174 11.6163C72.8174 11.6163 60.9403 7.20913 54.5909 23.4935C50.5572 33.8766 55.2632 41.1971 60.4175 42.1682L59.1475 48.5923L76.403 50.9826L77.9717 36.6404C78.9428 37.1633 80.2126 37.3875 81.4825 37.2381C84.2463 37.014 86.2632 34.8477 85.9644 32.532Z" fill="#F39DC2"/>
<path d="M79.8391 29.2453C62.3596 26.8549 61.9114 12.8862 61.9114 12.8862C61.9114 12.8862 67.3644 6.91031 76.2536 13.4091C86.4126 20.879 79.8391 29.2453 79.8391 29.2453Z" fill="#FFC52F"/>
<path d="M78.868 33.279C78.868 33.279 80.9596 30.291 84.0969 32.532" stroke="black" stroke-miterlimit="10" stroke-linecap="round" stroke-linejoin="round"/>
<path d="M79.6897 36.7152C80.061 36.7152 80.362 36.4142 80.362 36.0429C80.362 35.6716 80.061 35.3706 79.6897 35.3706C79.3184 35.3706 79.0175 35.6716 79.0175 36.0429C79.0175 36.4142 79.3184 36.7152 79.6897 36.7152Z" fill="white"/>
<path d="M62.8078 30.8887C62.8078 30.8887 63.1066 33.7272 60.3428 32.9803" stroke="black" stroke-miterlimit="10" stroke-linecap="round" stroke-linejoin="round"/>
<path d="M60.791 24.614C60.791 24.614 59.4464 27.826 59.9693 28.7224" stroke="black" stroke-miterlimit="10" stroke-linecap="round" stroke-linejoin="round"/>
<path d="M65.6464 28.1248C65.9764 28.1248 66.2439 27.8573 66.2439 27.5273C66.2439 27.1972 65.9764 26.9296 65.6464 26.9296C65.3164 26.9296 65.0488 27.1972 65.0488 27.5273C65.0488 27.8573 65.3164 28.1248 65.6464 28.1248Z" fill="black"/>
<path d="M56.309 25.2863C56.6391 25.2863 56.9066 25.0187 56.9066 24.6887C56.9066 24.3586 56.6391 24.0911 56.309 24.0911C55.979 24.0911 55.7114 24.3586 55.7114 24.6887C55.7114 25.0187 55.979 25.2863 56.309 25.2863Z" fill="black"/>
<path d="M55.8514 23.2606C56.9823 22.8704 57.7355 22.0798 57.5336 21.4948C57.3317 20.9099 56.2513 20.752 55.1204 21.1423C53.9894 21.5325 53.2362 22.3231 53.4381 22.9081C53.64 23.4931 54.7204 23.6509 55.8514 23.2606Z" fill="black"/>
<path d="M68.4997 26.965C68.8583 26.4606 68.3586 25.4897 67.3835 24.7964C66.4085 24.1031 65.3273 23.9499 64.9687 24.4543C64.6101 24.9586 65.1098 25.9295 66.0849 26.6228C67.0599 27.3161 68.1411 27.4693 68.4997 26.965Z" fill="black"/>
<path d="M67.5885 32.0092C68.2486 32.0092 68.7837 31.474 68.7837 30.814C68.7837 30.1539 68.2486 29.6188 67.5885 29.6188C66.9285 29.6188 66.3934 30.1539 66.3934 30.814C66.3934 31.474 66.9285 32.0092 67.5885 32.0092Z" fill="#FFC52F"/>
<path d="M67.6632 40.973C67.6632 40.973 64.6006 43.7368 59.0728 42.1682" stroke="black" stroke-miterlimit="10" stroke-linecap="round" stroke-linejoin="round"/>
<path d="M76.3386 51.0617C76.4934 49.9586 72.744 48.5204 67.964 47.8495C63.184 47.1786 59.1835 47.529 59.0286 48.632C58.8738 49.7351 62.6233 51.1732 67.4033 51.8441C72.1833 52.5151 76.1838 52.1648 76.3386 51.0617Z" fill="#F39DC2"/>
<path d="M50.7066 90.4983C61.4329 90.4983 70.1283 81.8029 70.1283 71.0766C70.1283 60.3503 61.4329 51.6549 50.7066 51.6549C39.9803 51.6549 31.2849 60.3503 31.2849 71.0766C31.2849 81.8029 39.9803 90.4983 50.7066 90.4983Z" stroke="black" stroke-miterlimit="10" stroke-linecap="round" stroke-linejoin="round"/>
<path d="M50.7066 72.2718C51.3667 72.2718 51.9018 71.7367 51.9018 71.0766C51.9018 70.4165 51.3667 69.8814 50.7066 69.8814C50.0465 69.8814 49.5114 70.4165 49.5114 71.0766C49.5114 71.7367 50.0465 72.2718 50.7066 72.2718Z" fill="black"/>
<path d="M50.7066 56.2863V71.0766L36.5885 65.9971" stroke="black" stroke-miterlimit="10" stroke-linecap="round" stroke-linejoin="round"/>
<path d="M99.8584 88.1826L64.5259 92.291" stroke="black" stroke-miterlimit="10" stroke-linecap="round" stroke-linejoin="round"/>
<path d="M85.3669 74.961L90.8945 83.4019" stroke="black" stroke-miterlimit="10" stroke-linecap="round" stroke-linejoin="round"/>
<path d="M60.9403 93.5609L50.7813 89.6766" stroke="#F39DC2" stroke-miterlimit="10" stroke-linecap="round"/>
<path d="M53.0222 92.291L38.2318 92.8139C38.2318 92.8139 38.456 93.785 39.2776 95.0549" stroke="black" stroke-miterlimit="10" stroke-linecap="round" stroke-linejoin="round"/>
</svg>
