<svg width="133" height="91" viewBox="0 0 133 91" fill="none" xmlns="http://www.w3.org/2000/svg">
<path d="M25.6529 86.2803H6.14029V4.50948H132.271V86.2803H123.708" stroke="white" stroke-miterlimit="10" stroke-linecap="round" stroke-linejoin="round"/>
<path d="M45.1111 19.4298C43.4775 17.4193 40.1267 17.4193 37.6554 19.4298C37.5297 19.5555 37.3622 19.6811 37.2365 19.8067L34.9747 12.4767L32.0846 12.0998C29.6971 8.62326 25.9692 6.31956 20.1471 6.98973C20.1471 6.98973 6.07344 9.71227 9.46619 29.1473C11.6443 41.5036 20.4403 45.8598 26.053 43.8074L28.6081 50.7604L46.7446 42.9696L39.8334 28.2258C41.09 28.1421 42.4304 27.6813 43.5613 26.7598C46.0744 24.7074 46.7446 21.4403 45.1111 19.4298Z" fill="#F39DC2"/>
<path d="M37.2784 19.7649C19.0162 27.6813 10.3459 14.4873 10.3459 14.4873C10.3459 14.4873 14.0737 2.50792 26.1368 5.60747C40.2523 9.25154 37.2784 19.7649 37.2784 19.7649Z" fill="black"/>
<path d="M38.7026 24.2047C38.7026 24.2047 38.9958 20.058 43.3519 20.435" stroke="black" stroke-miterlimit="10" stroke-linecap="round" stroke-linejoin="round"/>
<path d="M19.4352 30.8227C19.4352 30.8227 20.7337 33.2521 17.9273 33.5872" stroke="black" stroke-miterlimit="10" stroke-linecap="round" stroke-linejoin="round"/>
<path d="M15.3722 25.8801C15.3722 25.8801 15.3303 29.2729 16.1262 29.9012" stroke="black" stroke-miterlimit="10" stroke-linecap="round" stroke-linejoin="round"/>
<path d="M20.8173 27.3461C21.1643 27.3461 21.4456 27.0649 21.4456 26.7179C21.4456 26.3709 21.1643 26.0896 20.8173 26.0896C20.4703 26.0896 20.189 26.3709 20.189 26.7179C20.189 27.0649 20.4703 27.3461 20.8173 27.3461Z" fill="black"/>
<path d="M11.3092 28.2258C11.6562 28.2258 11.9375 27.9445 11.9375 27.5975C11.9375 27.2505 11.6562 26.9692 11.3092 26.9692C10.9622 26.9692 10.6809 27.2505 10.6809 27.5975C10.6809 27.9445 10.9622 28.2258 11.3092 28.2258Z" fill="black"/>
<path d="M10.3364 26.5063C11.2256 25.731 11.626 24.7349 11.2307 24.2816C10.8354 23.8283 9.79421 24.0894 8.90501 24.8647C8.01581 25.6401 7.61538 26.6361 8.01065 27.0894C8.40593 27.5427 9.44722 27.2817 10.3364 26.5063Z" fill="black"/>
<path d="M23.1445 25.1411C23.2835 24.556 22.4657 23.8606 21.3179 23.588C20.1701 23.3153 19.1269 23.5686 18.9879 24.1538C18.8489 24.7389 19.6668 25.4343 20.8146 25.707C21.9624 25.9796 23.0055 25.7263 23.1445 25.1411Z" fill="black"/>
<path d="M23.7494 30.1107C24.3971 30.1107 24.9222 29.5856 24.9222 28.9378C24.9222 28.2901 24.3971 27.765 23.7494 27.765C23.1017 27.765 22.5766 28.2901 22.5766 28.9378C22.5766 29.5856 23.1017 30.1107 23.7494 30.1107Z" fill="#DA3600"/>
<path d="M32.3359 38.2784C32.3359 38.2784 31.0374 42.7602 24.7545 44.4775" stroke="black" stroke-miterlimit="10" stroke-linecap="round" stroke-linejoin="round"/>
<path d="M38.5629 48.8675C43.5566 46.7196 47.2047 44.0482 46.7111 42.9007C46.2176 41.7532 41.7693 42.5642 36.7756 44.712C31.7818 46.8599 28.1337 49.5313 28.6272 50.6788C29.1208 51.8263 33.5691 51.0154 38.5629 48.8675Z" fill="#F39DC2"/>
<path d="M15.3303 9.12582C15.3303 9.12582 11.016 9.33527 8.41909 13.6495C5.82216 17.9638 8.96362 22.9901 8.96362 22.9901L15.7072 13.3982L15.3303 9.12582Z" fill="black"/>
<path d="M3.47658 75.5986C9.84323 54.1531 30.6186 46.8231 30.6186 46.8231L49.3835 39.9957L72.1694 68.0174L76.4417 83.5989V89.8398H57.1323L54.4935 88.8346C54.5773 88.9184 54.5773 88.9184 54.5773 88.9184L54.2003 89.8398H3.05176e-05C0.670204 86.1958 1.71737 81.5045 3.47658 75.5986Z" fill="#FFC52F"/>
<path d="M131.563 35.3045L120.589 41.6293C119.207 42.4251 117.448 41.9643 116.652 40.5821C115.856 39.1999 116.317 37.4406 117.699 36.6448L128.673 30.3201C130.056 29.5242 131.815 29.985 132.611 31.3672C133.406 32.7913 132.946 34.5505 131.563 35.3045Z" fill="#F39DC2"/>
<path d="M127.291 1H58.1795V89.8398H127.291V1Z" fill="#CE24CE"/>
<path d="M123.354 4.43462H54.2422V86.3634H123.354V4.43462Z" fill="white"/>
<path d="M115.856 1H46.7446V89.8398H115.856V1Z" fill="#CE24CE"/>
<path d="M115.856 1V89.798" stroke="black" stroke-miterlimit="10" stroke-linecap="round" stroke-linejoin="round"/>
<path d="M120.045 4.43462V50.9698" stroke="black" stroke-miterlimit="10" stroke-linecap="round" stroke-linejoin="round"/>
<path d="M117.825 26.1315V86.3634" stroke="black" stroke-miterlimit="10" stroke-linecap="round" stroke-linejoin="round"/>
<path d="M121.092 56.2474V86.3634" stroke="black" stroke-miterlimit="10" stroke-linecap="round" stroke-linejoin="round"/>
<mask id="mask0_117_4066" style="mask-type:luminance" maskUnits="userSpaceOnUse" x="64" y="18" width="37" height="37">
<path d="M82.599 54.8651C92.7081 54.8651 100.903 46.6701 100.903 36.561C100.903 26.4519 92.7081 18.2569 82.599 18.2569C72.4899 18.2569 64.2948 26.4519 64.2948 36.561C64.2948 46.6701 72.4899 54.8651 82.599 54.8651Z" fill="white"/>
</mask>
<g mask="url(#mask0_117_4066)">
<path d="M82.5988 55.8705C93.2631 55.8705 101.908 47.2253 101.908 36.561C101.908 25.8968 93.2631 17.2517 82.5988 17.2517C71.9346 17.2517 63.2894 25.8968 63.2894 36.561C63.2894 47.2253 71.9346 55.8705 82.5988 55.8705Z" fill="#CE24CE"/>
</g>
<mask id="mask1_117_4066" style="mask-type:luminance" maskUnits="userSpaceOnUse" x="64" y="18" width="37" height="37">
<path d="M82.599 54.8651C92.7081 54.8651 100.903 46.6701 100.903 36.561C100.903 26.4519 92.7081 18.2569 82.599 18.2569C72.4899 18.2569 64.2948 26.4519 64.2948 36.561C64.2948 46.6701 72.4899 54.8651 82.599 54.8651Z" fill="white"/>
</mask>
<g mask="url(#mask1_117_4066)">
<path d="M68.2321 54.8651C67.897 54.8651 67.6038 54.7395 67.3525 54.4882L65.9703 53.106C65.719 52.8546 65.5933 52.5615 65.5933 52.2264C65.5933 51.8913 65.719 51.5562 65.9703 51.3468L97.3009 19.8067C97.5522 19.5554 97.8873 19.4298 98.1805 19.4298C98.5156 19.4298 98.8088 19.5554 99.0601 19.8067L100.442 21.189C100.694 21.4403 100.819 21.7335 100.819 22.0686C100.819 22.4037 100.694 22.7387 100.442 22.9481L69.1117 54.4882C68.8604 54.7395 68.5672 54.8651 68.2321 54.8651Z" fill="white"/>
<path d="M98.1805 20.6863L99.5628 22.0686L68.2322 53.6086L66.8499 52.2264L98.1805 20.6863ZM98.1805 18.1732C97.5523 18.1732 96.8821 18.4245 96.3794 18.9272L65.0489 50.4671C64.5881 50.9279 64.3368 51.5981 64.3368 52.2264C64.3368 52.8966 64.5881 53.5249 65.0907 53.9856L66.473 55.3679C66.9756 55.8705 67.6039 56.0799 68.2322 56.0799C68.8605 56.0799 69.5306 55.8286 70.0333 55.3259L101.364 23.7859C101.825 23.3251 102.076 22.655 102.076 22.0267C102.076 21.3565 101.825 20.7282 101.322 20.2675L99.9397 18.8852C99.4371 18.4245 98.8088 18.1732 98.1805 18.1732Z" fill="white"/>
</g>
<mask id="mask2_117_4066" style="mask-type:luminance" maskUnits="userSpaceOnUse" x="64" y="18" width="37" height="37">
<path d="M82.599 54.8651C92.7081 54.8651 100.903 46.6701 100.903 36.561C100.903 26.4519 92.7081 18.2569 82.599 18.2569C72.4899 18.2569 64.2948 26.4519 64.2948 36.561C64.2948 46.6701 72.4899 54.8651 82.599 54.8651Z" fill="white"/>
</mask>
<g mask="url(#mask2_117_4066)">
<path d="M97.9291 54.7814C97.594 54.7814 97.2589 54.6558 97.0495 54.4044L65.5094 23.0738C65.0068 22.5712 65.0068 21.7754 65.5094 21.3146L66.8917 19.9324C67.143 19.6811 67.4362 19.5554 67.7713 19.5554C68.1064 19.5554 68.4414 19.6811 68.6509 19.9324L100.191 51.263C100.694 51.7656 100.694 52.5614 100.191 53.0222L98.8087 54.4044C98.5992 54.6558 98.2642 54.7814 97.9291 54.7814Z" fill="white"/>
<path d="M67.7295 20.812L99.2695 52.1425L97.8873 53.5248L66.3473 22.1942L67.7295 20.812ZM67.7295 18.2989C67.0594 18.2989 66.4311 18.5501 65.9284 19.0527L64.5462 20.435C63.5828 21.4402 63.5828 23.0319 64.5462 23.9953L96.0862 55.3259C96.547 55.7867 97.1752 56.038 97.8454 56.038C98.5156 56.038 99.1439 55.7866 99.6047 55.284L100.987 53.9018C101.95 52.8966 101.95 51.3049 100.987 50.3415L69.4468 19.0109C69.0699 18.5502 68.3997 18.2989 67.7295 18.2989Z" fill="white"/>
</g>
<mask id="mask3_117_4066" style="mask-type:luminance" maskUnits="userSpaceOnUse" x="64" y="18" width="37" height="37">
<path d="M82.599 54.8651C92.7081 54.8651 100.903 46.6701 100.903 36.561C100.903 26.4519 92.7081 18.2569 82.599 18.2569C72.4899 18.2569 64.2948 26.4519 64.2948 36.561C64.2948 46.6701 72.4899 54.8651 82.599 54.8651Z" fill="white"/>
</mask>
<g mask="url(#mask3_117_4066)">
<path d="M97.9276 20.6563L66.619 52.196L68.0162 53.5829L99.3248 22.0432L97.9276 20.6563Z" fill="#FFC52F"/>
</g>
<mask id="mask4_117_4066" style="mask-type:luminance" maskUnits="userSpaceOnUse" x="64" y="18" width="37" height="37">
<path d="M82.599 54.8651C92.7081 54.8651 100.903 46.6701 100.903 36.561C100.903 26.4519 92.7081 18.2569 82.599 18.2569C72.4899 18.2569 64.2948 26.4519 64.2948 36.561C64.2948 46.6701 72.4899 54.8651 82.599 54.8651Z" fill="white"/>
</mask>
<g mask="url(#mask4_117_4066)">
<path d="M67.538 20.8069L66.1511 22.204L97.6907 53.5126L99.0776 52.1155L67.538 20.8069Z" fill="#FFC52F"/>
</g>
<mask id="mask5_117_4066" style="mask-type:luminance" maskUnits="userSpaceOnUse" x="64" y="18" width="37" height="37">
<path d="M82.599 54.8651C92.7081 54.8651 100.903 46.6701 100.903 36.561C100.903 26.4519 92.7081 18.2569 82.599 18.2569C72.4899 18.2569 64.2948 26.4519 64.2948 36.561C64.2948 46.6701 72.4899 54.8651 82.599 54.8651Z" fill="white"/>
</mask>
<g mask="url(#mask5_117_4066)">
<path d="M62.2424 33.7128H78.913V16.5396H86.2849V33.7128H103.961V41.1267H86.2849V58.2579H78.913V41.1267H62.2424V33.7128Z" fill="#FFC52F"/>
</g>
<mask id="mask6_117_4066" style="mask-type:luminance" maskUnits="userSpaceOnUse" x="64" y="18" width="37" height="37">
<path d="M82.599 54.8651C92.7081 54.8651 100.903 46.6701 100.903 36.561C100.903 26.4519 92.7081 18.2569 82.599 18.2569C72.4899 18.2569 64.2948 26.4519 64.2948 36.561C64.2948 46.6701 72.4899 54.8651 82.599 54.8651Z" fill="white"/>
</mask>
<g mask="url(#mask6_117_4066)">
<path d="M62.2424 33.7128H78.913V16.5396H86.2849V33.7128H103.961V41.1267H86.2849V58.2579H78.913V41.1267H62.2424V33.7128Z" stroke="white" stroke-miterlimit="10" stroke-linecap="round" stroke-linejoin="round"/>
</g>
<path d="M127.249 58.593H117.448C115.856 58.593 114.558 57.2945 114.558 55.7029C114.558 54.1112 115.856 52.8128 117.448 52.8128H127.249C128.841 52.8128 130.139 54.1112 130.139 55.7029C130.098 57.3364 128.841 58.593 127.249 58.593Z" fill="#F39DC2"/>
<path d="M127.249 53.6086H117.448C115.856 53.6086 114.558 52.3101 114.558 50.7185C114.558 49.1268 115.856 47.8284 117.448 47.8284H127.249C128.841 47.8284 130.139 49.1268 130.139 50.7185C130.098 52.3101 128.841 53.6086 127.249 53.6086Z" fill="#F39DC2"/>
<path d="M127.249 48.6242H117.448C115.856 48.6242 114.558 47.3258 114.558 45.7341C114.558 44.1424 115.856 42.8439 117.448 42.8439H127.249C128.841 42.8439 130.139 44.1424 130.139 45.7341C130.098 47.3258 128.841 48.6242 127.249 48.6242Z" fill="#F39DC2"/>
<path d="M127.249 43.6398H117.448C115.856 43.6398 114.558 42.3413 114.558 40.7496C114.558 39.158 115.856 37.8596 117.448 37.8596H127.249C128.841 37.8596 130.139 39.158 130.139 40.7496C130.098 42.3413 128.841 43.6398 127.249 43.6398Z" fill="#F39DC2"/>
<path d="M115.772 43.2628H128.883" stroke="black" stroke-miterlimit="10" stroke-linecap="round" stroke-linejoin="round"/>
<path d="M115.772 48.1634H128.883" stroke="black" stroke-miterlimit="10" stroke-linecap="round" stroke-linejoin="round"/>
<path d="M115.772 53.2736H128.883" stroke="black" stroke-miterlimit="10" stroke-linecap="round" stroke-linejoin="round"/>
<path d="M79.8344 77.1485C79.8344 77.1485 54.0327 66.9702 35.3935 71.3263C16.7543 75.6825 19.812 89.8818 19.812 89.8818H76.4835L79.8344 77.1485Z" fill="#FFC52F"/>
<path d="M79.4575 78.5726L84.1068 81.6721L98.3061 83.0543L106.767 84.9392C106.767 84.9392 110.453 87.0335 106.767 89.8398H76.5255L79.4575 78.5726Z" fill="#F39DC2"/>
<path d="M24.7545 71.2845C24.7545 71.2845 54.0746 65.7137 79.8344 77.1066" stroke="black" stroke-miterlimit="10" stroke-linecap="round" stroke-linejoin="round"/>
<path d="M88.7981 85.9863L99.3114 86.1958C99.3114 86.1958 102.537 86.6984 100.861 89.8398" stroke="black" stroke-miterlimit="10" stroke-linecap="round" stroke-linejoin="round"/>
<path d="M93.95 84.3109L103.793 85.4C103.793 85.4 106.976 87.5361 104.128 89.8398" stroke="black" stroke-miterlimit="10" stroke-linecap="round" stroke-linejoin="round"/>
<path d="M96.882 89.8398C96.882 89.8398 98.0967 86.3633 93.95 86.112" stroke="black" stroke-miterlimit="10" stroke-linecap="round" stroke-linejoin="round"/>
<circle cx="82.5416" cy="36.9242" r="18.9583" fill="#FFC52F"/>
<path d="M101.5 36.9242C101.5 31.8961 99.5026 27.074 95.9472 23.5186C92.3918 19.9633 87.5697 17.9659 82.5416 17.9659C77.5136 17.9659 72.6914 19.9633 69.1361 23.5186C65.5807 27.074 63.5833 31.8961 63.5833 36.9242L82.5416 36.9242H101.5Z" fill="#324FCD"/>
</svg>
