<svg width="61" height="49" viewBox="0 0 61 49" fill="none" xmlns="http://www.w3.org/2000/svg">
<path d="M54.5532 1.98389L43.4782 5.45491L43.3129 5.53764C43.8088 7.19063 44.8006 9.42232 46.6189 11.9018C48.2719 14.1333 50.2554 15.6207 52.1564 16.5298L52.5696 16.1993L57.8592 5.95089C56.0409 5.1244 55.0491 3.47157 54.5532 1.98389Z" fill="#FFC52F"/>
<path d="M54.5536 1.98391C55.0495 3.38894 56.0413 5.04185 57.8596 6.03364L61.0002 0L54.5536 1.98391Z" fill="black"/>
<path d="M9.50948 45.7878L6.28614 48.3496C5.12905 49.2588 3.47607 49.0935 2.56692 47.9364L0.583372 45.4569C-0.32577 44.2998 -0.160471 42.6468 0.996619 41.7377L4.21991 39.1759C4.38521 39.0106 4.63317 39.0929 4.79847 39.2582L9.59211 45.2091C9.75741 45.3744 9.67478 45.6225 9.50948 45.7878Z" fill="#CE24CE"/>
<path d="M46.619 11.9841C44.8007 9.50464 43.8089 7.356 43.313 5.62036L1.65784 37.3576C1.65784 37.3576 -0.573714 39.589 3.39345 44.2173C7.36062 48.9283 10.0054 48.6807 10.0054 48.6807L52.1565 16.6126C50.2556 15.7034 48.272 14.2156 46.619 11.9841Z" fill="#7038DE"/>
<path d="M3.39337 44.2173L46.6189 11.9841" stroke="black" stroke-miterlimit="10" stroke-linecap="round" stroke-linejoin="round"/>
</svg>
