<svg width="73" height="77" viewBox="0 0 73 77" fill="none" xmlns="http://www.w3.org/2000/svg">
<path d="M33.8242 76.7574C52.4633 76.7574 67.5733 61.6475 67.5733 43.0084C67.5733 24.3693 52.4633 9.2594 33.8242 9.2594C15.1851 9.2594 0.0751953 24.3693 0.0751953 43.0084C0.0751953 61.6475 15.1851 76.7574 33.8242 76.7574Z" fill="#CE24CE"/>
<mask id="mask0_46_13201" style="mask-type:luminance" maskUnits="userSpaceOnUse" x="0" y="9" width="68" height="68">
<path d="M33.749 76.7574C52.3881 76.7574 67.4981 61.6475 67.4981 43.0084C67.4981 24.3693 52.3881 9.2594 33.749 9.2594C15.1099 9.2594 0 24.3693 0 43.0084C0 61.6475 15.1099 76.7574 33.749 76.7574Z" fill="white"/>
</mask>
<g mask="url(#mask0_46_13201)">
<path d="M22.424 81.4385C22.424 81.4385 23.1036 54.4845 43.7909 47.6139C64.4782 40.7433 75.0484 54.8619 75.0484 54.8619L67.5738 96.0101L22.424 81.4385Z" fill="#831EC1"/>
</g>
<mask id="mask1_46_13201" style="mask-type:luminance" maskUnits="userSpaceOnUse" x="0" y="9" width="68" height="68">
<path d="M33.749 76.7574C52.3881 76.7574 67.4981 61.6475 67.4981 43.0084C67.4981 24.3693 52.3881 9.2594 33.749 9.2594C15.1099 9.2594 0 24.3693 0 43.0084C0 61.6475 15.1099 76.7574 33.749 76.7574Z" fill="white"/>
</mask>
<g mask="url(#mask1_46_13201)">
<path d="M28.2372 51.9931C32.5408 50.4075 80.4085 57.0516 80.4085 57.0516L79.8045 58.1085L82.5981 57.3535C82.5981 57.3535 92.0357 66.9421 89.2421 72.2272C86.3731 77.5123 81.39 78.9469 81.39 78.9469L36.8443 63.4692C36.8443 63.4692 33.1448 68.9808 29.8227 68.3768C26.5007 67.7728 26.4252 66.8667 26.4252 66.8667C26.4252 66.8667 24.2356 67.2442 22.4236 66.6402C19.7811 65.8097 20.5361 62.6386 20.5361 62.6386C20.5361 62.6386 13.8165 66.9422 13.2125 65.2811C11.7025 61.5061 21.2156 54.4846 28.2372 51.9931Z" fill="#F39DC2"/>
<path d="M36.7687 63.3935C36.7687 63.3935 36.1647 60.5245 33.5977 61.7325C31.0306 62.9406 31.1061 65.2057 31.1061 65.2057" stroke="black" stroke-miterlimit="10" stroke-linecap="round" stroke-linejoin="round"/>
<path d="M31.5591 57.8066C31.5591 57.8066 24.1601 61.9592 26.4251 66.8668" stroke="black" stroke-miterlimit="10" stroke-linecap="round" stroke-linejoin="round"/>
<path d="M26.4252 56.5985C26.4252 56.5985 18.9505 59.6186 20.7626 65.2811" stroke="black" stroke-miterlimit="10" stroke-linecap="round" stroke-linejoin="round"/>
</g>
<mask id="mask2_46_13201" style="mask-type:luminance" maskUnits="userSpaceOnUse" x="0" y="9" width="68" height="68">
<path d="M33.749 76.7574C52.3881 76.7574 67.4981 61.6475 67.4981 43.0084C67.4981 24.3693 52.3881 9.2594 33.749 9.2594C15.1099 9.2594 0 24.3693 0 43.0084C0 61.6475 15.1099 76.7574 33.749 76.7574Z" fill="white"/>
</mask>
<g mask="url(#mask2_46_13201)">
<path d="M22.1219 70.8683H4.75661C3.24659 70.8683 1.9631 69.5847 1.9631 68.0746C1.9631 66.5646 3.24659 65.2811 4.75661 65.2811H22.1219C23.6319 65.2811 24.9155 66.5646 24.9155 68.0746C24.9155 69.6602 23.6319 70.8683 22.1219 70.8683Z" fill="#7038DE"/>
</g>
<path d="M71.6509 17.338C71.6509 17.338 69.6123 7.82496 58.1362 2.91738C49.227 -0.857676 41.6014 3.29489 41.6014 3.29489" stroke="#FFC52F" stroke-miterlimit="10"/>
<path d="M29.4456 51.0117L34.2777 34.7789" stroke="#FFC52F" stroke-miterlimit="10"/>
<path d="M40.3178 5.03135C40.3178 5.03135 40.6953 4.20099 41.6013 3.29497C43.1868 1.78495 46.5089 -0.0271513 52.7755 1.70938C62.6662 4.42742 67.7247 10.996 70.3672 23.6047C73.0098 36.2134 71.6508 45.651 71.6508 45.651H56.324L53.2285 24.1332L45.3009 23.6803L36.6182 13.8651L36.9202 8.95756L40.3178 5.03135Z" fill="#FFC52F"/>
<path d="M36.1654 29.4182L31.4843 50.181L48.5475 46.6325L47.4906 31.6079L36.1654 29.4182Z" fill="#FFC52F"/>
<path d="M44.4701 3.14373C44.4701 3.14373 41.8275 0.803227 36.3915 4.12528C30.9554 7.37183 35.41 13.7895 35.41 13.7895L44.4701 3.14373Z" fill="#FFC52F"/>
<path d="M42.1298 51.3136L42.5829 39.46C42.5829 39.46 35.1082 41.2721 32.6921 34.628C30.5026 28.6634 31.2577 22.8497 31.2577 22.8497C31.2577 22.8497 29.2191 21.4152 29.5211 19.6031C29.8986 17.7911 31.7107 18.1687 31.7107 18.1687C31.7107 18.1687 32.9187 14.9221 34.3532 12.2795C35.1837 10.7695 36.0897 9.48597 36.8447 9.03296C36.8447 9.03296 38.4303 15.5261 44.0929 19.4522C49.7555 23.3782 53.908 22.0947 53.908 22.0947C53.908 22.0947 58.3626 18.9236 60.0991 21.4907C61.8356 24.0577 59.9481 28.5878 57.985 29.0408C56.022 29.4938 56.0975 29.0408 56.0975 29.0408L58.2871 47.0857C58.2871 47.0857 54.2855 49.8791 50.5105 51.0871C46.6599 52.2196 42.1298 51.3136 42.1298 51.3136Z" fill="#F39DC2"/>
<path d="M32.5412 26.4738C32.5412 26.4738 33.8247 26.4738 35.1838 25.3413C35.9388 24.6618 36.3163 23.3782 36.3163 23.3782" stroke="black" stroke-miterlimit="10" stroke-linecap="round" stroke-linejoin="round"/>
<path d="M34.4288 17.489C34.4288 17.489 36.3163 18.0177 36.7693 19.5277" stroke="black" stroke-miterlimit="10" stroke-linecap="round" stroke-linejoin="round"/>
<path d="M38.2389 18.0568C38.6713 17.6647 38.3861 16.6458 37.6017 15.781C36.8174 14.9162 35.8309 14.533 35.3985 14.9252C34.9661 15.3174 35.2515 16.3363 36.0359 17.2011C36.8203 18.0659 37.8065 18.449 38.2389 18.0568Z" fill="black"/>
<path d="M40.8462 24.4353C41.555 24.4353 42.1296 23.8605 42.1296 23.1516C42.1296 22.4428 41.555 21.8682 40.8462 21.8682C40.1373 21.8682 39.5627 22.4428 39.5627 23.1516C39.5627 23.8605 40.1373 24.4353 40.8462 24.4353Z" fill="#FFC52F"/>
<path d="M47.6415 37.5724C47.6415 37.5724 44.3949 39.913 40.0913 39.6865" stroke="black" stroke-miterlimit="10" stroke-linecap="round" stroke-linejoin="round"/>
<path d="M56.8525 28.3613C57.1861 28.3613 57.4565 28.0908 57.4565 27.7572C57.4565 27.4237 57.1861 27.1532 56.8525 27.1532C56.5189 27.1532 56.2485 27.4237 56.2485 27.7572C56.2485 28.0908 56.5189 28.3613 56.8525 28.3613Z" fill="#CE24CE"/>
<path d="M55.871 24.6615C55.871 24.6615 57.3811 23.0761 58.4381 24.2086" stroke="black" stroke-miterlimit="10" stroke-linecap="round" stroke-linejoin="round"/>
</svg>
