<svg width="68" height="132" viewBox="0 0 68 132" fill="none" xmlns="http://www.w3.org/2000/svg">
<path d="M20.3982 1L12.4284 27.2402C12.4284 27.2402 -0.203065 49.8715 1.1503 64.8337C2.50367 79.796 10.7742 80.4727 10.7742 80.4727C10.7742 80.4727 18.1426 85.1342 20.4734 82.5027C22.8042 79.8711 20.4734 73.5555 20.4734 73.5555C20.4734 73.5555 23.4809 79.1945 26.4883 76.563C29.4958 73.9314 29.4958 73.9314 29.4958 73.9314C29.4958 73.9314 31.8266 75.5855 35.5108 72.578C39.195 69.5705 38.1423 59.6459 38.1423 59.6459C38.1423 59.6459 48.8189 42.6536 48.8189 27.0899C48.8189 11.451 50.849 1.15034 50.849 1.15034H20.3982V1Z" fill="#F39DC2"/>
<path d="M17.9171 78.4426L8.81953 80.3976L2.27825 49.4204C1.82713 47.2399 3.18052 45.1348 5.36094 44.6837L6.63909 44.3829C8.81951 43.9317 10.9248 45.2852 11.3759 47.4656L17.9171 78.4426Z" fill="#CE24CE"/>
<path d="M11.1499 43.9319L6.26272 65.8865C6.26272 65.8865 4.23268 71.6758 8.66872 73.1796C13.1048 74.7585 15.5108 67.6158 15.5108 67.6158L22.1272 48.3679C22.1272 48.3679 33.8564 51.9016 37.6157 31.9771" fill="#F39DC2"/>
<path d="M11.1499 43.9319L6.26272 65.8865C6.26272 65.8865 4.23268 71.6758 8.66872 73.1796C13.1048 74.7585 15.5108 67.6158 15.5108 67.6158L22.1272 48.3679C22.1272 48.3679 33.8564 51.9016 37.6157 31.9771" stroke="white" stroke-width="0.5" stroke-miterlimit="10" stroke-linecap="round" stroke-linejoin="round"/>
<path d="M24.7591 60.097C24.7591 60.097 21.9772 66.1119 25.8117 66.1871C29.6462 66.1871 29.7966 63.1796 29.7966 63.1796L29.3455 73.8561" stroke="white" stroke-width="0.5" stroke-miterlimit="10" stroke-linecap="round" stroke-linejoin="round"/>
<path d="M32.127 55.8865C32.127 55.8865 31.2248 61.6007 34.6834 61.7511C38.142 61.9015 37.9916 59.5705 37.9916 59.5705C37.9916 59.5705 37.7661 55.0594 33.7811 55.2849C29.7962 55.5105 29.7962 63.2548 29.7962 63.2548C29.7962 63.2548 28.6684 59.4955 27.6158 59.4955C26.488 59.4955 23.6309 59.9466 22.9542 62.3526C22.2775 64.7586 20.3979 73.5554 20.3979 73.5554" stroke="white" stroke-width="0.5" stroke-miterlimit="10" stroke-linecap="round" stroke-linejoin="round"/>
<path d="M5.88687 67.6908C5.88687 67.6908 7.0899 64.533 10.2478 65.5105C13.4056 66.4879 11.2252 73.1795 11.2252 73.1795" stroke="white" stroke-width="0.5" stroke-miterlimit="10" stroke-linecap="round" stroke-linejoin="round"/>
<path d="M15.2101 87.1644L16.2627 83.6305L12.6537 84.4576L15.2101 87.1644Z" fill="white"/>
<path d="M8.81931 80.3976L12.6538 84.4576L16.2628 83.6305L17.9169 78.4426L8.81931 80.3976Z" fill="#CE24CE"/>
<path d="M8.81931 80.3976L17.9169 78.4426" stroke="white" stroke-width="0.5" stroke-miterlimit="10" stroke-linecap="round" stroke-linejoin="round"/>
<path d="M15.2103 87.1644C15.2103 87.1644 11.3005 97.1642 25.8116 103.254C40.3227 109.42 52.4279 93.4801 45.2851 88.5929C38.1423 83.7809 12.2028 96.2621 19.3456 116.187C26.4883 136.111 58.4428 130.171 58.4428 130.171" stroke="white" stroke-width="0.5" stroke-miterlimit="10" stroke-linecap="round" stroke-linejoin="round"/>
<path d="M1 1H67.0143" stroke="white" stroke-width="0.5" stroke-miterlimit="10" stroke-linecap="round" stroke-linejoin="round"/>
</svg>
