<svg width="72" height="107" viewBox="0 0 72 107" fill="none" xmlns="http://www.w3.org/2000/svg">
<path d="M21.9338 49.6428C16.4759 46.0742 12.8022 39.8815 12.8022 32.8491C12.8022 21.7233 21.8288 12.8018 32.8496 12.8018C43.9755 12.8018 52.8972 21.8282 52.8972 32.8491C52.8972 36.8376 51.7427 40.5112 49.7484 43.5551" stroke="#FFC52F" stroke-miterlimit="10" stroke-linecap="round" stroke-linejoin="round"/>
<path d="M24.5571 65.0718C14.271 62.028 5.76905 54.156 2.41031 43.1351C-2.83773 25.8166 7.02863 7.65834 24.2422 2.41031C41.5607 -2.83773 59.719 7.02863 64.967 24.2422C66.8563 30.4349 66.7513 36.6276 65.1769 42.4005" stroke="#FFC52F" stroke-miterlimit="10" stroke-linecap="round" stroke-linejoin="round"/>
<path d="M66.752 45.8644C63.6031 46.0743 62.6585 47.9636 61.6089 49.538C60.5592 48.0685 59.6146 45.8643 56.9906 45.7593C53.8417 45.7593 51.3228 48.2783 51.3228 51.4271C51.3228 48.2783 48.8037 45.7593 45.6549 45.7593C42.5061 45.7593 39.987 48.2783 39.987 51.4271V32.2195C39.987 28.9657 37.5728 26.1316 34.424 25.8168C30.7504 25.5019 27.6015 28.3357 27.6015 32.0093V75.883L18.7849 65.7018C17.0006 63.6026 13.7468 63.0779 11.5426 64.7573C9.23349 66.5416 8.81365 69.7954 10.493 72.1046L27.8115 95.1959C33.2695 102.543 41.7713 106.951 50.9029 106.951C51.0079 106.951 51.2178 106.951 51.3228 106.951C56.151 106.951 60.0345 105.062 63.0783 102.648C68.8512 98.0297 72 90.7875 72 83.3353V63.6026V51.8471C71.895 48.8032 69.6909 45.6544 66.752 45.8644Z" fill="#F39DC2"/>
<path d="M40.3013 49.6428V63.1829" stroke="white" stroke-width="0.5" stroke-miterlimit="10" stroke-linecap="round" stroke-linejoin="round"/>
<path d="M51.0073 49.6428V63.1829" stroke="white" stroke-width="0.5" stroke-miterlimit="10" stroke-linecap="round" stroke-linejoin="round"/>
<path d="M61.6087 49.6428V63.1829" stroke="white" stroke-width="0.5" stroke-miterlimit="10" stroke-linecap="round" stroke-linejoin="round"/>
<path d="M9.96825 71.2647C9.96825 71.2647 11.9624 67.5909 14.4815 69.7951C17.0005 71.9993 14.4815 77.4573 14.4815 77.4573" stroke="white" stroke-width="0.5" stroke-miterlimit="10" stroke-linecap="round" stroke-linejoin="round"/>
<path d="M29.3859 27.7061C29.3859 27.7061 28.3363 34.8434 33.4794 34.8434C38.6225 34.8434 38.0976 27.7061 38.0976 27.7061" stroke="white" stroke-width="0.5" stroke-miterlimit="10" stroke-linecap="round" stroke-linejoin="round"/>
</svg>
