<svg width="1469" height="614" viewBox="0 0 1469 614" fill="none" xmlns="http://www.w3.org/2000/svg">
<path d="M320.5 3.11755C415.812 0.814109 557.325 -1.07054 652.58 3.11757C724.227 6.2677 795.636 14.8592 866.547 25.1236C923.833 33.4157 985.443 39.055 1040.18 58.4696C1064.52 67.1029 1092.86 80.5211 1103.27 105.176C1114.28 131.278 1115.45 168.101 1097.52 191.516C1079.75 214.716 1048.61 230.039 1022.14 240.918C972.808 261.19 919.768 271.892 867.007 279.092C736.21 296.94 603.2 289.839 471.708 285.604C384.357 282.79 295.522 276.411 208.328 285.379C149.303 291.45 75.3276 302.648 28.8344 342.415C-74.5034 430.805 139.143 494.597 194.309 513.524C410.529 587.704 643.582 606.448 871.144 609.407C1070.13 611.995 1269.02 610.828 1468 613" stroke="white" stroke-linecap="round"/>
</svg>
