<svg width="357" height="754" viewBox="0 0 357 754" fill="none" xmlns="http://www.w3.org/2000/svg">
<path d="M171.139 1.16452C196.134 0.450397 229.036 -2.03871 239.651 26.4888C245.014 40.9031 244.788 57.1927 237.277 70.8064C231.27 81.6934 227.341 84.2117 214.326 89.3474C167.808 107.705 118.049 113.9 73.46 138.187C47.2202 152.48 -2.12574 188.923 15.3498 226.822C23.7076 244.948 52.5919 254.674 68.8248 261.53C108.676 278.362 145.381 288.213 188.324 290.585C195.702 290.993 207.373 290.571 214.1 294.655C223.277 300.227 217.474 321.21 214.326 328.006C192.548 375.029 123.198 379.921 79.3389 390.3C56.3013 395.751 7.25627 390.5 1.55706 417.32C-0.5 427 1.93912 433.4 5.40093 440.044C17.3339 462.945 31.9792 485.239 54.4668 498.945C86.3196 518.36 119.975 519.911 155.99 520.087C169.494 520.153 212.424 515.567 220.771 531.618C231.517 552.284 205.921 577.445 191.715 588.146C169.377 604.974 135.438 605.813 108.733 608.722C98.89 609.794 -5.77261 613.982 21.7939 646.143C34.4366 660.893 50.8847 672.419 66.4506 683.79C96.5776 705.798 128.101 725.317 163.678 737.378C223.677 757.719 294.397 755.077 356.323 745.97" stroke="white" stroke-width="0.5" stroke-linecap="round"/>
</svg>
