<svg width="16" height="16" viewBox="0 0 16 16" fill="none" xmlns="http://www.w3.org/2000/svg">
<path fill-rule="evenodd" clip-rule="evenodd" d="M8 16C3.61905 16 0 12.381 0 8C0 3.61905 3.6129 0 7.99386 0C12.3748 0 16 3.61905 16 8C16 12.381 12.381 16 8 16ZM7.01685 12.0184C7.2442 12.0184 7.44082 11.914 7.58828 11.6866L11.7173 5.21659C11.8095 5.08141 11.8894 4.91551 11.8894 4.76805C11.8894 4.44239 11.6006 4.23963 11.2995 4.23963C11.1213 4.23963 10.9431 4.34408 10.8079 4.55299L6.98613 10.6298L4.95234 8.07987C4.79258 7.87711 4.62668 7.80338 4.43006 7.80338C4.12899 7.80338 3.87707 8.04301 3.87707 8.36866C3.87707 8.52227 3.93851 8.68817 4.04297 8.8172L6.4147 11.6928C6.60518 11.9263 6.78951 12.0184 7.01685 12.0184Z" fill="#CE24CE"/>
</svg>
