<svg width="558" height="456" viewBox="0 0 558 456" fill="none" xmlns="http://www.w3.org/2000/svg">
<path d="M179.16 308.112C179.16 308.112 164.704 272.334 191.085 265.107C217.466 257.879 294.801 259.686 294.801 259.686V111.883H187.11C187.11 111.883 179.16 86.2256 210.238 78.2753C241.317 70.3249 296.607 62.3739 315.761 70.3242C334.914 78.2746 343.587 153.441 343.587 153.441L480.911 283.537L360.933 393.036C360.933 393.036 309.617 333.047 289.019 321.844C268.781 310.641 179.16 308.112 179.16 308.112Z" fill="#F39DC2"/>
<path d="M422.006 244.146C422.006 244.146 398.155 123.446 381.893 89.1152C365.993 54.7842 358.765 39.6053 345.033 42.8577C331.3 46.1101 332.384 66.709 332.384 66.709C332.384 66.709 298.053 -5.20459 278.178 0.577459C258.302 5.99813 258.302 28.4039 264.445 40.6908C270.95 52.6163 222.164 3.10675 200.481 30.9329C178.799 58.759 253.242 94.1741 253.242 94.1741L309.256 108.629L360.21 210.177L422.006 244.146Z" fill="#F39DC2"/>
<path d="M264.806 40.3296L292.994 64.9026" stroke="black" stroke-width="2" stroke-miterlimit="10" stroke-linecap="round" stroke-linejoin="round"/>
<path d="M332.745 66.7097L369.244 177.292" stroke="black" stroke-width="2" stroke-miterlimit="10" stroke-linecap="round" stroke-linejoin="round"/>
<path d="M295.162 259.325H310.34" stroke="black" stroke-width="2" stroke-miterlimit="10" stroke-linecap="round" stroke-linejoin="round"/>
<path d="M189.64 92.0061C189.64 92.0061 215.659 102.847 222.164 75.3823C222.164 75.3823 299.137 59.8434 315.761 70.3234C332.384 80.8034 338.166 157.416 338.166 157.416" stroke="black" stroke-width="2" stroke-miterlimit="10" stroke-linecap="round" stroke-linejoin="round"/>
<path d="M204.456 26.958C204.456 26.958 216.381 47.9187 232.644 40.3297C248.906 32.7408 248.906 32.7404 248.906 32.7404" stroke="black" stroke-width="2" stroke-miterlimit="10" stroke-linecap="round" stroke-linejoin="round"/>
<path d="M274.925 1.66162C274.925 1.66162 279.623 41.0522 306.365 21.8992" stroke="black" stroke-width="2" stroke-miterlimit="10" stroke-linecap="round" stroke-linejoin="round"/>
<path d="M345.394 42.8584C345.394 42.8584 344.671 69.6004 359.849 71.7687C375.027 73.9369 370.69 65.2646 370.69 65.2646" stroke="black" stroke-width="2" stroke-miterlimit="10" stroke-linecap="round" stroke-linejoin="round"/>
<path d="M295.162 111.882H1V262.578H295.162V111.882Z" stroke="#0D1321" stroke-width="2" stroke-miterlimit="10" stroke-linecap="round" stroke-linejoin="round"/>
<path d="M145.913 240.172C173.855 240.172 196.506 217.52 196.506 189.579C196.506 161.637 173.855 138.986 145.913 138.986C117.971 138.986 95.3198 161.637 95.3198 189.579C95.3198 217.52 117.971 240.172 145.913 240.172Z" stroke="#0D1321" stroke-width="2" stroke-miterlimit="10" stroke-linecap="round" stroke-linejoin="round"/>
<path d="M145.913 228.608C167.468 228.608 184.942 211.133 184.942 189.578C184.942 168.023 167.468 150.55 145.913 150.55C124.358 150.55 106.884 168.023 106.884 189.578C106.884 211.133 124.358 228.608 145.913 228.608Z" stroke="#0D1321" stroke-width="2" stroke-miterlimit="10" stroke-linecap="round" stroke-linejoin="round"/>
<path d="M236.257 144.045C241.446 144.045 245.653 139.839 245.653 134.65C245.653 129.461 241.446 125.254 236.257 125.254C231.068 125.254 226.861 129.461 226.861 134.65C226.861 139.839 231.068 144.045 236.257 144.045Z" stroke="#0D1321" stroke-width="2" stroke-miterlimit="10" stroke-linecap="round" stroke-linejoin="round"/>
<path d="M264.806 144.045C269.996 144.045 274.202 139.839 274.202 134.65C274.202 129.461 269.996 125.254 264.806 125.254C259.617 125.254 255.411 129.461 255.411 134.65C255.411 139.839 259.617 144.045 264.806 144.045Z" stroke="#0D1321" stroke-width="2" stroke-miterlimit="10" stroke-linecap="round" stroke-linejoin="round"/>
<path d="M50.8703 97.7886H20.876V111.52H50.8703V97.7886Z" stroke="#0D1321" stroke-width="2" stroke-miterlimit="10" stroke-linecap="round" stroke-linejoin="round"/>
<path d="M556.8 212.706L295.162 454.47" stroke="#0D1321" stroke-width="2" stroke-miterlimit="10" stroke-linecap="round" stroke-linejoin="round"/>
</svg>
