<svg width="277" height="192" viewBox="0 0 277 192" fill="none" xmlns="http://www.w3.org/2000/svg">
<path d="M107.538 173.232H209.351L276 59.2886" stroke="#831EC1" stroke-width="2" stroke-miterlimit="10" stroke-linecap="round" stroke-linejoin="round"/>
<path d="M0.136346 122.122C0.136346 122.122 15.2652 96.7704 22.3526 95.8164C29.44 94.8623 17.3096 155.242 17.3096 155.242L6.13333 173.369L0 173.505V122.122H0.136346Z" fill="#CE24CE"/>
<path d="M170.643 141.066C163.01 137.932 76.1895 145.291 76.1895 145.291L77.2799 147.2L72.2369 145.564C72.2369 145.564 54.2458 161.92 58.8799 171.733C63.5139 181.546 72.3732 184.545 72.3732 184.545L154.151 160.966C154.151 160.966 160.284 171.324 166.281 170.506C172.278 169.689 172.415 168.189 172.415 168.189C172.415 168.189 176.367 169.007 179.638 168.189C184.409 166.963 183.455 161.238 183.455 161.238C183.455 161.238 195.04 169.552 196.403 166.69C199.538 159.875 183.046 146.246 170.643 141.066Z" fill="#F39DC2"/>
<path d="M101.541 65.5581C101.541 65.5581 130.3 68.9656 135.206 125.665" stroke="#0D1321" stroke-miterlimit="10" stroke-linecap="round" stroke-linejoin="round"/>
<path d="M43.8875 83.2768C43.8875 83.2768 18.6727 62.9687 43.8875 24.1243" stroke="#0D1321" stroke-miterlimit="10" stroke-linecap="round" stroke-linejoin="round"/>
<path d="M47.8398 14.5835C47.8398 14.5835 32.0295 35.5731 33.1198 58.8798C34.2102 82.1864 76.462 94.8619 76.462 94.8619C76.462 94.8619 87.502 98.6783 91.7272 110.263C96.0887 121.849 97.4516 131.117 97.4516 131.117L111.899 129.754L112.717 120.486L116.669 128.527L131.389 126.755C131.389 126.755 132.616 76.5983 98.6783 67.739C64.7405 58.8798 47.8398 14.5835 47.8398 14.5835Z" fill="#0D1321"/>
<path d="M74.8264 71.6918C94.0966 71.6918 109.718 56.0702 109.718 36.8C109.718 17.5298 94.0966 1.9082 74.8264 1.9082C55.5561 1.9082 39.9346 17.5298 39.9346 36.8C39.9346 56.0702 55.5561 71.6918 74.8264 71.6918Z" fill="#0D1321"/>
<path d="M89.6829 7.76852C89.6829 7.76852 103.994 4.63367 111.627 16.764C119.259 28.7581 106.856 38.9803 106.856 38.9803L89.6829 7.76852Z" fill="#0D1321"/>
<path d="M100.178 14.9924C100.178 14.9924 108.901 22.7613 109.991 31.6206C111.081 40.4798 110.127 43.2058 110.127 43.2058C110.127 43.2058 114.08 43.4783 113.126 48.7939C112.308 54.1094 108.628 53.1554 108.628 53.1554C108.628 53.1554 104.812 77.6887 91.0459 81.505C77.2799 85.3213 79.4607 82.3228 79.4607 82.3228L72.9184 107.81L24.397 111.354L54.3821 52.2013C54.3821 52.2013 41.0251 45.7953 47.0221 36.2546C53.0191 26.7139 61.3332 37.345 61.3332 37.345L100.178 14.9924Z" fill="#F39DC2"/>
<path d="M102.632 43.2057C103.234 43.2057 103.722 42.7175 103.722 42.1153C103.722 41.5131 103.234 41.0249 102.632 41.0249C102.03 41.0249 101.541 41.5131 101.541 42.1153C101.541 42.7175 102.03 43.2057 102.632 43.2057Z" fill="black"/>
<path d="M98.8197 37.0947C101.014 35.9304 102.335 34.1242 101.77 33.0603C101.206 31.9965 98.9696 32.0779 96.7754 33.2422C94.5813 34.4065 93.2601 36.2127 93.8246 37.2766C94.3891 38.3404 96.6255 38.259 98.8197 37.0947Z" fill="black"/>
<path d="M86.1392 46.6132C87.9458 46.6132 89.4104 45.1487 89.4104 43.3421C89.4104 41.5355 87.9458 40.071 86.1392 40.071C84.3326 40.071 82.8682 41.5355 82.8682 43.3421C82.8682 45.1487 84.3326 46.6132 86.1392 46.6132Z" fill="#CE24CE"/>
<path d="M61.606 37.2087C61.606 37.2087 71.0104 37.6176 85.0489 28.7583C99.0874 19.7628 100.178 14.9924 100.178 14.9924L78.643 16.4917L61.606 37.2087Z" fill="#0D1321"/>
<path d="M71.0105 38.708C74.2816 38.2991 78.6431 36.9361 84.0949 33.5287C97.1793 25.4872 100.314 14.9924 100.314 14.9924" stroke="#0D1321" stroke-miterlimit="10" stroke-linecap="round" stroke-linejoin="round"/>
<path d="M31.6209 92.9539C31.6209 92.9539 18.1276 93.3627 10.2224 107.674C2.3172 121.985 3.13504 166.281 3.13504 166.281C3.13504 166.281 -1.09014 193.813 31.0758 191.905C63.2417 189.86 71.9646 184.545 71.9646 184.545C71.9646 184.545 65.4224 173.778 67.6031 162.738C69.7839 151.698 76.8713 145.292 76.8713 145.292L112.717 142.838C112.717 142.838 102.631 97.8605 83.2772 95.5434C71.1469 94.0442 31.6209 92.9539 31.6209 92.9539Z" fill="#CE24CE"/>
<path d="M88.4563 125.529L91.7274 143.247" stroke="black" stroke-miterlimit="10" stroke-linecap="round" stroke-linejoin="round"/>
<path d="M69.1018 79.4602C69.1018 79.4602 73.8722 84.3669 86.6841 83.1402" stroke="black" stroke-miterlimit="10" stroke-linecap="round" stroke-linejoin="round"/>
<path d="M91.1825 56.2898C91.1825 56.2898 90.0921 59.9698 94.7261 61.6054" stroke="black" stroke-miterlimit="10" stroke-linecap="round" stroke-linejoin="round"/>
<path d="M6.13383 121.031C6.13383 121.031 2.45388 166.69 3.54425 173.232" stroke="black" stroke-miterlimit="10" stroke-linecap="round" stroke-linejoin="round"/>
<path d="M43.8875 121.031L50.566 146.927L112.853 142.838" stroke="black" stroke-miterlimit="10" stroke-linecap="round" stroke-linejoin="round"/>
<path d="M154.152 160.829C154.152 160.829 155.515 155.65 160.012 158.103C164.51 160.557 164.101 164.646 164.101 164.646" stroke="black" stroke-miterlimit="10" stroke-linecap="round" stroke-linejoin="round"/>
<path d="M164.101 151.152C164.101 151.152 177.049 159.33 172.415 167.917" stroke="black" stroke-miterlimit="10" stroke-linecap="round" stroke-linejoin="round"/>
<path d="M173.505 149.517C173.505 149.517 186.726 155.65 182.909 165.736" stroke="black" stroke-miterlimit="10" stroke-linecap="round" stroke-linejoin="round"/>
<path d="M218.074 65.5586H178.412V92.9542H218.074V65.5586Z" fill="#831EC1"/>
<path d="M191.769 89.2739L198.311 100.586L204.717 89.2739H191.769Z" fill="#831EC1"/>
<path d="M182.364 72.9187H213.985" stroke="white" stroke-miterlimit="10" stroke-linecap="round" stroke-linejoin="round"/>
<path d="M182.364 79.3245H196.812" stroke="white" stroke-miterlimit="10" stroke-linecap="round" stroke-linejoin="round"/>
<path d="M182.364 85.7302H213.985" stroke="white" stroke-miterlimit="10" stroke-linecap="round" stroke-linejoin="round"/>
<path d="M178.957 0H139.295V27.3955H178.957V0Z" fill="#831EC1"/>
<path d="M152.516 23.5793L159.194 35.0283L165.6 23.5793H152.516Z" fill="#831EC1"/>
<path d="M143.248 7.22388H174.868" stroke="white" stroke-miterlimit="10" stroke-linecap="round" stroke-linejoin="round"/>
<path d="M143.248 13.6296H157.695" stroke="white" stroke-miterlimit="10" stroke-linecap="round" stroke-linejoin="round"/>
</svg>
